<svg width="32.000000" height="32.000000" viewBox="0 0 32 32" fill="none" xmlns="http://www.w3.org/2000/svg" xmlns:xlink="http://www.w3.org/1999/xlink">
	<desc>
			Created with Pixso.
	</desc>
	<defs/>
	<path d="M0 16C0 7.16 7.16 0 16 0C24.83 0 32 7.16 32 16C32 24.83 24.83 32 16 32C7.16 32 0 24.83 0 16Z" fill="#FF8800" fill-opacity="1.000000" fill-rule="nonzero"/>
	<path d="M16.03 16.31C18.7 16.31 20.87 14.13 20.87 11.47C20.87 8.8 18.7 6.62 16.03 6.62C13.33 6.62 11.15 8.8 11.15 11.47C11.15 14.13 13.33 16.31 16.03 16.31ZM16.03 9.46C17.13 9.46 18.03 10.36 18.03 11.47C18.03 12.57 17.13 13.47 16.03 13.47C14.92 13.47 14.02 12.57 14.02 11.47C14 10.36 14.89 9.46 16.03 9.46ZM17.97 20.29C18.96 20.05 19.91 19.68 20.78 19.12C21.45 18.72 21.65 17.82 21.22 17.15C20.81 16.48 19.91 16.28 19.25 16.72C17.27 17.96 14.69 17.96 12.72 16.72C12.05 16.31 11.18 16.48 10.75 17.15C10.37 17.82 10.57 18.69 11.24 19.1C12.11 19.65 13.07 20.02 14.05 20.26L11.35 22.95C10.8 23.51 10.8 24.41 11.35 24.96C11.65 25.25 11.99 25.36 12.37 25.36C12.75 25.36 13.1 25.22 13.39 24.96L16.06 22.29L18.72 24.96C19.28 25.51 20.18 25.51 20.73 24.96C21.28 24.41 21.28 23.51 20.73 22.95L17.97 20.29Z" fill="#FFFFFF" fill-opacity="1.000000" fill-rule="evenodd"/>
</svg>
