<svg width="32.000000" height="32.000000" viewBox="0 0 32 32" fill="none" xmlns="http://www.w3.org/2000/svg" xmlns:xlink="http://www.w3.org/1999/xlink">
	<desc>
			Created with Pixso.
	</desc>
	<defs/>
	<path d="M0 16C0 24.83 7.16 32 16 32C24.83 32 32 24.83 32 16C32 7.16 24.83 0 16 0C7.16 0 0 7.16 0 16Z" fill="#25D366" fill-opacity="1.000000" fill-rule="evenodd"/>
	<path d="M21.6 10.29C20.1 8.79 18.1 8 16 8C11.6 8 8 11.6 8 16C8 17.39 8.4 18.79 9.09 20L8 24L12.2 22.89C13.4 23.5 14.7 23.89 16 23.89C20.4 23.89 24 20.29 24 15.89C24 13.79 23.1 11.79 21.6 10.29ZM16 22.6C14.8 22.6 13.6 22.29 12.6 21.7L12.4 21.6L9.9 22.29L10.6 19.89L10.4 19.6C9.69 18.5 9.4 17.29 9.4 16.1C9.4 12.5 12.4 9.5 16 9.5C17.79 9.5 19.4 10.2 20.7 11.39C22 12.7 22.6 14.29 22.6 16.1C22.6 19.6 19.7 22.6 16 22.6ZM19.6 17.6C19.4 17.5 18.4 17 18.2 17C18 16.89 17.9 16.89 17.79 17.1C17.7 17.29 17.29 17.7 17.2 17.89C17.1 18 17 18 16.79 18C16.6 17.89 16 17.7 15.2 17C14.6 16.5 14.2 15.79 14.1 15.6C14 15.39 14.1 15.29 14.2 15.2C14.3 15.1 14.4 15 14.5 14.89C14.6 14.79 14.6 14.7 14.7 14.6C14.8 14.5 14.7 14.39 14.7 14.29C14.7 14.2 14.3 13.2 14.1 12.79C14 12.5 13.8 12.5 13.7 12.5C13.6 12.5 13.5 12.5 13.3 12.5C13.2 12.5 13 12.5 12.8 12.7C12.6 12.89 12.1 13.39 12.1 14.39C12.1 15.39 12.8 16.29 12.9 16.5C13 16.6 14.3 18.7 16.29 19.5C18 20.2 18.29 20 18.7 20C19.1 20 19.9 19.5 20 19.1C20.2 18.6 20.2 18.2 20.1 18.2C20 17.7 19.79 17.7 19.6 17.6Z" fill="#FFFFFF" fill-opacity="1.000000" fill-rule="evenodd"/>
</svg>
