<svg width="22.000000" height="22.000000" viewBox="0 0 22 22" fill="none" xmlns="http://www.w3.org/2000/svg" xmlns:xlink="http://www.w3.org/1999/xlink">
	<desc>
			Created with Pixso.
	</desc>
	<defs/>
	<path id="Vector" d="M7.33 1.83L7.33 4.58" stroke="#1C1C1C" stroke-opacity="1.000000" stroke-width="1.000000" stroke-linejoin="round" stroke-linecap="round"/>
	<path id="Vector" d="M14.66 1.83L14.66 4.58" stroke="#1C1C1C" stroke-opacity="1.000000" stroke-width="1.000000" stroke-linejoin="round" stroke-linecap="round"/>
	<path id="Vector" d="M3.2 8.33L18.79 8.33" stroke="#1C1C1C" stroke-opacity="1.000000" stroke-width="1.000000" stroke-linejoin="round" stroke-linecap="round"/>
	<path id="Vector" d="M19.25 15.58C19.25 18.33 17.87 20.16 14.66 20.16L7.33 20.16C4.12 20.16 2.75 18.33 2.75 15.58L2.75 7.79C2.75 5.04 4.12 3.2 7.33 3.2L14.66 3.2C17.87 3.2 19.25 5.04 19.25 7.79L19.25 15.58Z" stroke="#1C1C1C" stroke-opacity="1.000000" stroke-width="1.000000" stroke-linejoin="round"/>
	<g opacity="0.000000">
		<path id="Vector" d="" fill="#1C1C1C" fill-opacity="1.000000" fill-rule="evenodd"/>
	</g>
	<path id="Vector" d="M14.38 12.55L14.39 12.55" stroke="#1C1C1C" stroke-opacity="1.000000" stroke-width="1.000000" stroke-linejoin="round" stroke-linecap="round"/>
	<path id="Vector" d="M14.38 15.3L14.39 15.3" stroke="#1C1C1C" stroke-opacity="1.000000" stroke-width="1.000000" stroke-linejoin="round" stroke-linecap="round"/>
	<path id="Vector" d="M10.99 12.55L11 12.55" stroke="#1C1C1C" stroke-opacity="1.000000" stroke-width="1.000000" stroke-linejoin="round" stroke-linecap="round"/>
	<path id="Vector" d="M10.99 15.3L11 15.3" stroke="#1C1C1C" stroke-opacity="1.000000" stroke-width="1.000000" stroke-linejoin="round" stroke-linecap="round"/>
	<path id="Vector" d="M7.6 12.55L7.61 12.55" stroke="#1C1C1C" stroke-opacity="1.000000" stroke-width="1.000000" stroke-linejoin="round" stroke-linecap="round"/>
	<path id="Vector" d="M7.6 15.3L7.61 15.3" stroke="#1C1C1C" stroke-opacity="1.000000" stroke-width="1.000000" stroke-linejoin="round" stroke-linecap="round"/>
</svg>
