<svg width="15.784668" height="14.466797" viewBox="0 0 15.7847 14.4668" fill="none" xmlns="http://www.w3.org/2000/svg" xmlns:xlink="http://www.w3.org/1999/xlink">
	<desc>
			Created with Pixso.
	</desc>
	<defs/>
	<path id="3-Check" d="M5.14 14.46C5.08 14.46 5.02 14.45 4.97 14.42C4.91 14.39 4.87 14.34 4.84 14.29C3.54 12.09 0.1 7.4 0.06 7.35C0.01 7.28 -0.01 7.2 0 7.12C0 7.03 0.04 6.95 0.1 6.9L1.16 5.85C1.22 5.79 1.29 5.76 1.37 5.75C1.45 5.74 1.53 5.77 1.6 5.81L5.07 8.23C7.37 5.27 9.51 3.23 10.92 2.03C12.5 0.68 13.5 0.07 13.54 0.04C13.59 0.01 13.66 0 13.72 0L15.43 0C15.5 0 15.57 0.02 15.63 0.06C15.69 0.1 15.73 0.15 15.76 0.22C15.78 0.28 15.79 0.36 15.77 0.42C15.75 0.49 15.72 0.55 15.66 0.6C13.12 2.86 10.48 6.46 8.71 9.08C6.79 11.93 5.45 14.26 5.44 14.29C5.41 14.34 5.36 14.38 5.31 14.41C5.26 14.45 5.2 14.46 5.14 14.46L5.14 14.46Z" fill="#FFFFFF" fill-opacity="1.000000" fill-rule="evenodd"/>
</svg>
