<svg width="34.200073" height="31.343750" viewBox="0 0 34.2001 31.3438" fill="none" xmlns="http://www.w3.org/2000/svg" xmlns:xlink="http://www.w3.org/1999/xlink">
	<desc>
			Created with Pixso.
	</desc>
	<defs/>
	<path id="3-Check" d="M11.14 31.34C11.01 31.34 10.88 31.31 10.76 31.24C10.65 31.17 10.56 31.08 10.49 30.97C7.69 26.19 0.22 16.03 0.14 15.93C0.03 15.78 -0.02 15.6 0 15.42C0.01 15.25 0.09 15.08 0.22 14.95L2.51 12.68C2.64 12.56 2.8 12.48 2.98 12.47C3.15 12.45 3.33 12.5 3.47 12.6L10.98 17.84C15.97 11.43 20.61 7 23.66 4.39C27.08 1.47 29.25 0.16 29.34 0.1C29.46 0.03 29.59 0 29.73 0L33.45 0C33.6 0 33.75 0.04 33.87 0.13C34 0.21 34.09 0.33 34.15 0.48C34.2 0.62 34.21 0.78 34.17 0.92C34.14 1.07 34.06 1.21 33.94 1.3C28.44 6.21 22.71 14 18.88 19.68C14.71 25.85 11.82 30.91 11.79 30.96C11.72 31.08 11.63 31.17 11.52 31.24C11.4 31.3 11.27 31.34 11.14 31.34L11.14 31.34Z" fill="#1C1C1C" fill-opacity="1.000000" fill-rule="nonzero"/>
</svg>
