<svg width="21.000000" height="19.885742" viewBox="0 0 21 19.8857" fill="none" xmlns="http://www.w3.org/2000/svg" xmlns:xlink="http://www.w3.org/1999/xlink">
	<desc>
			Created with Pixso.
	</desc>
	<defs/>
	<path id="Vector" d="M18.66 1.2C18.51 1.06 18.27 1.06 18.12 1.2L14.21 5.11C14.16 5.17 14.12 5.23 14.11 5.31C14.1 5.38 14.1 5.45 14.13 5.52C14.16 5.59 14.21 5.65 14.27 5.69C14.33 5.73 14.4 5.76 14.48 5.76C14.53 5.76 14.58 5.75 14.62 5.73C14.67 5.71 14.71 5.68 14.75 5.65L18.66 1.74C18.8 1.59 18.8 1.35 18.66 1.2ZM19.72 2.25C19.65 2.18 19.55 2.14 19.45 2.14C19.35 2.14 19.26 2.18 19.19 2.25L15.28 6.16C15.21 6.23 15.17 6.33 15.17 6.43C15.17 6.53 15.21 6.62 15.28 6.69C15.31 6.73 15.35 6.76 15.4 6.77C15.44 6.79 15.49 6.8 15.54 6.8C15.59 6.8 15.64 6.79 15.69 6.77C15.73 6.76 15.77 6.73 15.81 6.69L19.72 2.78C19.75 2.75 19.78 2.71 19.8 2.66C19.82 2.62 19.83 2.57 19.83 2.52C19.83 2.47 19.82 2.42 19.8 2.37C19.78 2.33 19.75 2.29 19.72 2.25Z" fill="#000000" fill-opacity="1.000000" fill-rule="nonzero"/>
	<path id="Vector" d="M16.03 8.85L20.88 4C20.92 3.96 20.95 3.92 20.97 3.88C20.99 3.83 21 3.78 21 3.73C21 3.68 20.99 3.63 20.97 3.59C20.95 3.54 20.92 3.5 20.88 3.47C20.74 3.32 20.5 3.32 20.35 3.47L15.5 8.32C14.9 8.92 13.99 9.07 13.22 8.71C13.15 8.67 13.07 8.66 12.99 8.68C12.9 8.7 12.83 8.74 12.78 8.8L11.13 10.66C11.13 10.66 11.13 10.66 11.13 10.66C11.13 10.66 11.13 10.66 11.12 10.66L4 18.69L3.99 18.7C3.97 18.73 3.95 18.75 3.92 18.77C3.45 19.24 2.69 19.24 2.22 18.77C1.99 18.55 1.86 18.24 1.86 17.92C1.86 17.6 1.99 17.29 2.22 17.07C2.24 17.04 2.27 17.02 2.29 17C2.29 17 2.29 17 2.3 16.99L6.75 13.04C6.83 12.97 6.87 12.88 6.88 12.78C6.89 12.68 6.85 12.58 6.78 12.51C6.65 12.35 6.41 12.34 6.25 12.47L1.8 16.43C1.76 16.46 1.72 16.5 1.68 16.53C1.31 16.9 1.11 17.4 1.11 17.92C1.11 18.44 1.31 18.94 1.68 19.31C2.07 19.69 2.57 19.88 3.07 19.88C3.57 19.88 4.07 19.69 4.46 19.31C4.49 19.27 4.53 19.23 4.56 19.19L10 13.07L15.43 19.19C15.46 19.23 15.5 19.27 15.53 19.31C15.92 19.69 16.42 19.88 16.92 19.88C17.42 19.88 17.93 19.69 18.31 19.31C19.07 18.54 19.07 17.3 18.31 16.53C18.27 16.5 18.23 16.46 18.19 16.43L11.94 10.88L13.16 9.5C14.15 9.85 15.28 9.61 16.03 8.85ZM17.69 16.99L17.7 17C17.73 17.02 17.75 17.04 17.77 17.07C18.25 17.54 18.25 18.3 17.77 18.77C17.3 19.24 16.54 19.24 16.07 18.77C16.04 18.75 16.02 18.72 15.99 18.69L10.5 12.5L11.44 11.44L17.69 16.99Z" fill="#000000" fill-opacity="1.000000" fill-rule="nonzero"/>
	<path id="Vector" d="M17.52 0.11C17.45 0.04 17.36 0 17.26 0C17.16 0 17.06 0.04 16.99 0.11L12.14 4.96C11.38 5.71 11.14 6.83 11.49 7.83L10 9.15L8.56 7.88C9.3 6.42 9.03 4.64 7.85 3.47C6.68 2.3 5.33 1.47 4.04 1.15C2.69 0.81 1.54 1.04 0.79 1.79C0.04 2.54 -0.19 3.69 0.15 5.04C0.47 6.33 1.3 7.68 2.47 8.85C3.64 10.03 5.42 10.3 6.88 9.56L8.3 11.16C8.34 11.2 8.38 11.23 8.43 11.25C8.48 11.28 8.53 11.29 8.58 11.29C8.67 11.29 8.76 11.25 8.83 11.19L12.19 8.21C12.25 8.16 12.29 8.08 12.31 8C12.33 7.92 12.32 7.84 12.28 7.77C11.92 7 12.07 6.09 12.67 5.49L17.52 0.64C17.56 0.6 17.59 0.56 17.61 0.52C17.62 0.47 17.63 0.42 17.63 0.37C17.63 0.32 17.62 0.27 17.61 0.23C17.59 0.18 17.56 0.14 17.52 0.11ZM8.61 10.38L7.24 8.83C7.18 8.77 7.1 8.72 7.01 8.71C6.93 8.7 6.84 8.71 6.76 8.76C5.55 9.51 4.01 9.33 3 8.32C1.92 7.25 1.17 6.01 0.88 4.85C0.61 3.77 0.76 2.87 1.32 2.32C1.87 1.76 2.78 1.61 3.85 1.88C5.01 2.17 6.25 2.92 7.32 4C8.33 5 8.51 6.55 7.76 7.76C7.71 7.84 7.7 7.93 7.71 8.01C7.72 8.1 7.77 8.18 7.83 8.24L9.43 9.66L8.61 10.38Z" fill="#000000" fill-opacity="1.000000" fill-rule="nonzero"/>
</svg>
