<svg width="16.000000" height="16.000000" viewBox="0 0 16 16" fill="none" xmlns="http://www.w3.org/2000/svg" xmlns:xlink="http://www.w3.org/1999/xlink">
	<desc>
			Created with Pixso.
	</desc>
	<defs/>
	<path id="facebook" d="M16 8C16 3.6 12.4 0 8 0C3.59 0 0 3.6 0 8C0 12 2.9 15.29 6.69 15.89L6.69 10.29L4.69 10.29L4.69 8L6.69 8L6.69 6.2C6.69 4.2 7.9 3.1 9.69 3.1C10.6 3.1 11.5 3.29 11.5 3.29L11.5 5.29L10.5 5.29C9.5 5.29 9.19 5.89 9.19 6.5L9.19 8L11.4 8L11 10.29L9.09 10.29L9.09 16C13.1 15.39 16 12 16 8Z" fill="#1C1C1C" fill-opacity="1.000000" fill-rule="nonzero"/>
</svg>
