<svg width="22.000000" height="22.000000" viewBox="0 0 22 22" fill="none" xmlns="http://www.w3.org/2000/svg" xmlns:xlink="http://www.w3.org/1999/xlink">
	<desc>
			Created with Pixso.
	</desc>
	<defs/>
	<path d="M20.16 5.95L14.66 5.95" stroke="#1C1C1C" stroke-opacity="1.000000" stroke-width="1.000000" stroke-linejoin="round" stroke-linecap="round"/>
	<path d="M5.5 5.95L1.83 5.95" stroke="#1C1C1C" stroke-opacity="1.000000" stroke-width="1.000000" stroke-linejoin="round" stroke-linecap="round"/>
	<path d="M9.16 9.16C7.39 9.16 5.95 7.73 5.95 5.95C5.95 4.18 7.39 2.75 9.16 2.75C10.93 2.75 12.37 4.18 12.37 5.95C12.37 7.73 10.93 9.16 9.16 9.16Z" stroke="#1C1C1C" stroke-opacity="1.000000" stroke-width="1.000000" stroke-linejoin="round"/>
	<path d="M20.16 16.04L16.5 16.04" stroke="#1C1C1C" stroke-opacity="1.000000" stroke-width="1.000000" stroke-linejoin="round" stroke-linecap="round"/>
	<path d="M7.33 16.04L1.83 16.04" stroke="#1C1C1C" stroke-opacity="1.000000" stroke-width="1.000000" stroke-linejoin="round" stroke-linecap="round"/>
	<path d="M12.83 19.25C11.06 19.25 9.62 17.81 9.62 16.04C9.62 14.26 11.06 12.83 12.83 12.83C14.6 12.83 16.04 14.26 16.04 16.04C16.04 17.81 14.6 19.25 12.83 19.25Z" stroke="#1C1C1C" stroke-opacity="1.000000" stroke-width="1.000000" stroke-linejoin="round"/>
	<g opacity="0.000000"/>
</svg>
