<svg width="14.121948" height="21.484375" viewBox="0 0 14.1219 21.4844" fill="none" xmlns="http://www.w3.org/2000/svg" xmlns:xlink="http://www.w3.org/1999/xlink">
	<desc>
			Created with Pixso.
	</desc>
	<defs/>
	<path id="Vector" d="M9.03 21.48C10.12 19.86 10.22 18.11 9.33 16.24C9.08 17.24 8.63 17.86 7.97 18.07C8.58 16.32 8.07 14.43 6.43 12.4C6.4 14.5 5.89 16.03 4.92 16.98C3.58 18.3 3.6 19.79 4.97 21.45C-0.73 18.42 -1.53 14.36 2.56 9.26C2.81 10.49 3.42 11.25 4.4 11.53C3.34 7.01 4.46 3.17 7.76 0C7.78 7.04 9.94 7.67 12.67 10.82C15.62 14.59 13.89 18.95 9.03 21.48Z" fill="#FFFFFF" fill-opacity="1.000000" fill-rule="evenodd"/>
</svg>
