<svg width="16.599976" height="16.600098" viewBox="0 0 16.6 16.6001" fill="none" xmlns="http://www.w3.org/2000/svg" xmlns:xlink="http://www.w3.org/1999/xlink">
	<desc>
			Created with Pixso.
	</desc>
	<defs/>
	<path id="instagram" d="M11.7 0L4.9 0C4 0 3.4 0.2 2.9 0.39C2.4 0.6 1.9 0.89 1.4 1.39C0.9 1.89 0.69 2.29 0.4 2.89C0.19 3.39 0.09 4 0 4.89L0 11.7C0 12.6 0.19 13.2 0.4 13.7C0.59 14.2 0.9 14.7 1.4 15.2C1.9 15.7 2.3 15.89 2.9 16.2C3.4 16.39 4 16.5 4.9 16.6L11.7 16.6C12.6 16.6 13.2 16.39 13.7 16.2C14.2 16 14.7 15.7 15.2 15.2C15.7 14.7 15.9 14.29 16.2 13.7C16.4 13.2 16.5 12.6 16.6 11.7L16.6 4.89C16.6 4 16.4 3.39 16.2 2.89C16 2.39 15.7 1.89 15.2 1.39C14.7 0.89 14.3 0.7 13.7 0.39C13.2 0.2 12.6 0.1 11.7 0ZM4.9 1.5L11.7 1.5C12.5 1.5 12.9 1.7 13.2 1.79C13.6 2 13.9 2.1 14.2 2.39C14.5 2.7 14.7 3 14.8 3.39C14.9 3.7 15 4.1 15.1 4.89L15.1 11.7C15.1 12.5 14.9 12.89 14.8 13.2C14.6 13.6 14.5 13.89 14.2 14.2C13.9 14.5 13.6 14.7 13.2 14.79C12.9 14.89 12.5 15 11.7 15.1L4.9 15.1C4.09 15.1 3.69 14.89 3.4 14.79C3 14.6 2.69 14.5 2.4 14.2C2.09 13.89 1.9 13.6 1.8 13.2C1.69 12.89 1.59 12.5 1.5 11.7L1.5 4.89C1.5 4.1 1.69 3.7 1.8 3.39C2 3 2.09 2.7 2.4 2.39C2.69 2.1 3 1.89 3.4 1.79C3.69 1.7 4.09 1.6 4.9 1.5ZM13.7 3.89C13.7 4.45 13.25 4.89 12.7 4.89C12.14 4.89 11.7 4.45 11.7 3.89C11.7 3.34 12.14 2.89 12.7 2.89C13.25 2.89 13.7 3.34 13.7 3.89ZM8.3 4C5.9 4 4 5.89 4 8.29C4 10.7 5.9 12.6 8.3 12.6C10.7 12.6 12.6 10.7 12.6 8.29C12.6 5.89 10.7 4 8.3 4ZM8.3 11.1C6.8 11.1 5.5 9.89 5.5 8.29C5.5 6.79 6.69 5.5 8.3 5.5C9.8 5.5 11.1 6.7 11.1 8.29C11.1 9.79 9.8 11.1 8.3 11.1Z" fill="#1C1C1C" fill-opacity="1.000000" fill-rule="evenodd"/>
</svg>
