<svg width="12.128906" height="64.601562" viewBox="0 0 12.1289 64.6016" fill="none" xmlns="http://www.w3.org/2000/svg" xmlns:xlink="http://www.w3.org/1999/xlink">
	<desc>
			Created with Pixso.
	</desc>
	<defs/>
	<path id="!" d="M1.31 45.13L10.5 45.13L11.55 0L0.3 0L1.31 45.13ZM0.65 56.09Q0 57.33 0 58.93Q0 60.4 0.59 61.58Q0.96 62.34 1.58 62.97Q1.78 63.18 2 63.36Q3.53 64.59 6.06 64.59Q8.59 64.59 10.12 63.36Q10.34 63.18 10.54 62.97Q11.16 62.34 11.53 61.58Q12.12 60.4 12.12 58.93Q12.12 57.33 11.47 56.09Q11.09 55.37 10.5 54.77Q10.19 54.46 9.83 54.2Q8.34 53.12 6.06 53.12Q3.78 53.12 2.28 54.2Q1.93 54.46 1.62 54.77Q1.03 55.37 0.65 56.09Z" fill="#EC1C24" fill-opacity="1.000000" fill-rule="evenodd"/>
</svg>
