<svg width="10.891846" height="18.750000" viewBox="0 0 10.8918 18.75" fill="none" xmlns="http://www.w3.org/2000/svg" xmlns:xlink="http://www.w3.org/1999/xlink">
	<desc>
			Created with Pixso.
	</desc>
	<defs/>
	<path id="ok" d="M5.46 9.69C8.13 9.69 10.31 7.51 10.31 4.84C10.31 2.17 8.13 0 5.46 0C2.77 0 0.59 2.17 0.59 4.84C0.59 7.51 2.77 9.69 5.46 9.69ZM5.46 2.84C6.57 2.84 7.47 3.74 7.47 4.84C7.47 5.94 6.57 6.84 5.46 6.84C4.36 6.84 3.46 5.94 3.46 4.84C3.43 3.74 4.33 2.84 5.46 2.84ZM7.41 13.66C8.39 13.43 9.35 13.05 10.22 12.5C10.89 12.09 11.09 11.19 10.66 10.53C10.25 9.86 9.35 9.66 8.68 10.09C6.71 11.34 4.13 11.34 2.16 10.09C1.49 9.69 0.62 9.86 0.18 10.53C-0.19 11.19 0.01 12.06 0.68 12.47C1.55 13.02 2.5 13.4 3.49 13.63L0.79 16.33C0.24 16.88 0.24 17.78 0.79 18.33C1.08 18.62 1.43 18.74 1.81 18.74C2.18 18.74 2.53 18.59 2.82 18.33L5.49 15.66L8.16 18.33C8.71 18.88 9.61 18.88 10.16 18.33C10.71 17.78 10.71 16.88 10.16 16.33L7.41 13.66Z" fill="#1C1C1C" fill-opacity="1.000000" fill-rule="evenodd"/>
</svg>
