<svg width="23.134155" height="23.166656" viewBox="0 0 23.1342 23.1667" fill="none" xmlns="http://www.w3.org/2000/svg" xmlns:xlink="http://www.w3.org/1999/xlink">
	<desc>
			Created with Pixso.
	</desc>
	<defs/>
	<path id="Vector" d="M22.11 19.62C21.92 20.01 21.69 20.37 21.37 20.72C20.84 21.31 20.26 21.73 19.6 22C18.95 22.27 18.24 22.41 17.48 22.41C16.38 22.41 15.2 22.15 13.95 21.62C12.71 21.09 11.46 20.37 10.22 19.48C8.98 18.57 7.8 17.56 6.67 16.44C5.56 15.32 4.55 14.14 3.65 12.9C2.76 11.67 2.05 10.43 1.53 9.21C1.01 7.97 0.75 6.79 0.75 5.66C0.75 4.93 0.88 4.22 1.14 3.57C1.4 2.91 1.81 2.31 2.38 1.76C3.07 1.08 3.83 0.75 4.63 0.75C4.94 0.75 5.24 0.81 5.51 0.94C5.79 1.07 6.04 1.26 6.24 1.55L8.75 5.09C8.95 5.36 9.09 5.61 9.18 5.85C9.28 6.07 9.34 6.3 9.34 6.51C9.34 6.77 9.26 7.03 9.11 7.28C8.97 7.53 8.76 7.79 8.5 8.05L7.68 8.9C7.56 9.02 7.51 9.16 7.51 9.34C7.51 9.42 7.52 9.5 7.54 9.59C7.57 9.67 7.6 9.74 7.62 9.8C7.82 10.16 8.16 10.63 8.63 11.19C9.12 11.75 9.64 12.33 10.2 12.9C10.79 13.47 11.35 14.01 11.93 14.49C12.49 14.97 12.95 15.29 13.32 15.49C13.38 15.51 13.44 15.54 13.52 15.58C13.6 15.61 13.69 15.62 13.79 15.62C13.97 15.62 14.11 15.55 14.23 15.44L15.06 14.62C15.33 14.35 15.59 14.15 15.84 14.02C16.09 13.86 16.33 13.79 16.61 13.79C16.81 13.79 17.03 13.83 17.27 13.93C17.5 14.03 17.75 14.17 18.02 14.35L21.61 16.9C21.89 17.09 22.09 17.32 22.21 17.59C22.31 17.86 22.38 18.13 22.38 18.44C22.38 18.83 22.29 19.23 22.11 19.62Z" stroke="#1C1C1C" stroke-opacity="1.000000" stroke-width="1.500000"/>
</svg>
