<svg width="22.000000" height="21.917969" viewBox="0 0 22 21.918" fill="none" xmlns="http://www.w3.org/2000/svg" xmlns:xlink="http://www.w3.org/1999/xlink">
	<desc>
			Created with Pixso.
	</desc>
	<defs/>
	<path id="Vector" d="M10.02 20.05C12.47 20.05 14.79 19.17 16.61 17.58L20.83 21.72C20.95 21.84 21.13 21.91 21.31 21.91C21.4 21.91 21.49 21.89 21.57 21.86C21.66 21.82 21.73 21.77 21.8 21.71C22.06 21.44 22.06 21 21.79 20.74L17.58 16.6C19.18 14.78 20.05 12.47 20.05 10.02C20.05 7.34 19 4.83 17.11 2.93C15.22 1.04 12.7 0 10.02 0C7.34 0 4.83 1.04 2.93 2.93C1.04 4.83 0 7.34 0 10.02C0 12.7 1.04 15.22 2.93 17.11C4.83 19 7.34 20.05 10.02 20.05ZM3.9 3.9C5.59 2.22 7.81 1.37 10.02 1.37C12.24 1.37 14.45 2.22 16.14 3.9C19.51 7.28 19.51 12.76 16.14 16.14C12.77 19.51 7.28 19.51 3.9 16.14C0.53 12.76 0.53 7.28 3.9 3.9Z" fill="#585858" fill-opacity="1.000000" fill-rule="evenodd"/>
</svg>
