<svg width="16.000000" height="13.259766" viewBox="0 0 16 13.2598" fill="none" xmlns="http://www.w3.org/2000/svg" xmlns:xlink="http://www.w3.org/1999/xlink">
	<desc>
			Created with Pixso.
	</desc>
	<defs/>
	<path id="telegram" d="M1.09 5.7C5.39 3.83 8.25 2.6 9.69 2C13.78 0.3 14.63 0 15.18 0C15.3 -0.01 15.58 0.02 15.75 0.17C15.9 0.29 15.94 0.45 15.96 0.57C15.98 0.68 16.01 0.94 15.99 1.15C15.77 3.47 14.81 9.13 14.32 11.74C14.11 12.84 13.71 13.21 13.31 13.25C12.46 13.33 11.81 12.68 10.98 12.14C9.68 11.29 8.95 10.76 7.69 9.93C6.24 8.97 7.18 8.45 8.01 7.58C8.22 7.36 11.99 3.93 12.07 3.62C12.08 3.58 12.08 3.44 12 3.36C11.91 3.28 11.79 3.31 11.69 3.33C11.56 3.36 9.49 4.73 5.48 7.44C4.89 7.84 4.36 8.04 3.88 8.03C3.36 8.02 2.34 7.73 1.59 7.49C0.67 7.19 -0.06 7.03 0 6.52C0.03 6.25 0.4 5.98 1.09 5.7Z" fill="#1C1C1C" fill-opacity="1.000000" fill-rule="nonzero"/>
</svg>
