<svg width="22.000000" height="22.000000" viewBox="0 0 22 22" fill="none" xmlns="http://www.w3.org/2000/svg" xmlns:xlink="http://www.w3.org/1999/xlink">
	<desc>
			Created with Pixso.
	</desc>
	<defs/>
	<path d="M20.16 11C20.16 5.93 16.05 1.83 11 1.83C5.93 1.83 1.83 5.93 1.83 11C1.83 16.05 5.93 20.16 11 20.16" stroke="#1C1C1C" stroke-opacity="1.000000" stroke-width="1.000000" stroke-linejoin="round" stroke-linecap="round"/>
	<path d="M7.33 2.75L8.25 2.75C6.46 8.1 6.46 13.89 8.25 19.25L7.33 19.25" stroke="#1C1C1C" stroke-opacity="1.000000" stroke-width="1.000000" stroke-linejoin="round" stroke-linecap="round"/>
	<path d="M13.75 2.75C14.63 5.42 15.08 8.21 15.08 11" stroke="#1C1C1C" stroke-opacity="1.000000" stroke-width="1.000000" stroke-linejoin="round" stroke-linecap="round"/>
	<path d="M2.75 14.66L2.75 13.75C5.42 14.63 8.21 15.08 11 15.08" stroke="#1C1C1C" stroke-opacity="1.000000" stroke-width="1.000000" stroke-linejoin="round" stroke-linecap="round"/>
	<path d="M2.75 8.25C8.1 6.46 13.89 6.46 19.25 8.25" stroke="#1C1C1C" stroke-opacity="1.000000" stroke-width="1.000000" stroke-linejoin="round" stroke-linecap="round"/>
	<path d="M16.68 19.61C15.06 19.61 13.75 18.3 13.75 16.68C13.75 15.06 15.06 13.75 16.68 13.75C18.3 13.75 19.61 15.06 19.61 16.68C19.61 18.3 18.3 19.61 16.68 19.61Z" stroke="#1C1C1C" stroke-opacity="1.000000" stroke-width="1.000000" stroke-linejoin="round"/>
	<path d="M20.16 20.16L19.25 19.25" stroke="#1C1C1C" stroke-opacity="1.000000" stroke-width="1.000000" stroke-linejoin="round" stroke-linecap="round"/>
	<g opacity="0.000000"/>
</svg>
