<svg width="21.354614" height="13.322754" viewBox="0 0 21.3546 13.3228" fill="none" xmlns="http://www.w3.org/2000/svg" xmlns:xlink="http://www.w3.org/1999/xlink">
	<desc>
			Created with Pixso.
	</desc>
	<defs/>
	<path id="Vector" d="M11.62 13.32C4.33 13.32 0.17 8.33 0 0.01L3.66 0.01C3.78 6.11 6.47 8.69 8.6 9.22L8.6 0.01L12.05 0.01L12.05 5.26C14.15 5.04 16.37 2.64 17.12 0L20.55 0C20.27 1.36 19.71 2.66 18.91 3.8C18.1 4.95 17.07 5.91 15.88 6.64C17.21 7.3 18.39 8.24 19.33 9.39C20.27 10.54 20.96 11.88 21.35 13.32L17.56 13.32C16.75 10.79 14.73 8.83 12.05 8.56L12.05 13.32L11.63 13.32L11.62 13.32Z" fill="#1C1C1C" fill-opacity="1.000000" fill-rule="nonzero"/>
</svg>
