<svg width="16.000000" height="16.000000" viewBox="0 0 16 16" fill="none" xmlns="http://www.w3.org/2000/svg" xmlns:xlink="http://www.w3.org/1999/xlink">
	<desc>
			Created with Pixso.
	</desc>
	<defs/>
	<path id="whatsapp" d="M13.6 2.29C12.1 0.79 10.1 0 8 0C3.59 0 0 3.6 0 8C0 9.39 0.4 10.79 1.09 12L0 16L4.19 14.89C5.4 15.5 6.69 15.89 8 15.89C12.4 15.89 16 12.29 16 7.89C16 5.79 15.1 3.79 13.6 2.29ZM8 14.6C6.8 14.6 5.59 14.29 4.59 13.7L4.4 13.6L1.9 14.29L2.59 11.89L2.4 11.6C1.69 10.5 1.4 9.29 1.4 8.1C1.4 4.5 4.4 1.5 8 1.5C9.8 1.5 11.4 2.2 12.7 3.39C14 4.7 14.6 6.29 14.6 8.1C14.6 11.6 11.7 14.6 8 14.6ZM11.6 9.6C11.4 9.5 10.4 9 10.2 9C10 8.89 9.9 8.89 9.8 9.1C9.69 9.29 9.3 9.7 9.19 9.89C9.09 10 9 10 8.8 10C8.59 9.89 8 9.7 7.19 9C6.59 8.5 6.19 7.79 6.09 7.6C6 7.39 6.09 7.29 6.19 7.2C6.3 7.1 6.4 7 6.5 6.89C6.59 6.79 6.59 6.7 6.69 6.6C6.8 6.5 6.69 6.39 6.69 6.29C6.69 6.2 6.3 5.2 6.09 4.79C6 4.5 5.8 4.5 5.69 4.5C5.59 4.5 5.5 4.5 5.3 4.5C5.19 4.5 5 4.5 4.8 4.7C4.59 4.89 4.09 5.39 4.09 6.39C4.09 7.39 4.8 8.29 4.9 8.5C5 8.6 6.3 10.7 8.3 11.5C10 12.2 10.3 12 10.7 12C11.1 12 11.9 11.5 12 11.1C12.2 10.6 12.2 10.2 12.1 10.2C12 9.7 11.8 9.7 11.6 9.6Z" fill="#1C1C1C" fill-opacity="1.000000" fill-rule="evenodd"/>
</svg>
