<svg width="121.000000" height="44.000000" viewBox="0 0 121 44" fill="none" xmlns="http://www.w3.org/2000/svg" xmlns:xlink="http://www.w3.org/1999/xlink">
	<desc>
			Created with Pixso.
	</desc>
	<defs>
		<clipPath id="clip203_9740">
			<rect id="logo (1) 1" width="121.000000" height="44.000000" fill="white" fill-opacity="0"/>
		</clipPath>
		<linearGradient x1="94.832611" y1="20.535839" x2="110.236778" y2="20.535839" id="paint_linear_203_9746_0" gradientUnits="userSpaceOnUse">
			<stop stop-color="#871719"/>
			<stop offset="0.450000" stop-color="#DA1F26"/>
			<stop offset="1.000000" stop-color="#F0564B"/>
		</linearGradient>
		<linearGradient x1="94.832611" y1="15.089027" x2="110.236786" y2="15.089027" id="paint_linear_203_9751_0" gradientUnits="userSpaceOnUse">
			<stop stop-color="#F0564B"/>
			<stop offset="0.550000" stop-color="#DA1F26"/>
			<stop offset="1.000000" stop-color="#871719"/>
		</linearGradient>
		<linearGradient x1="109.140968" y1="11.445072" x2="116.216583" y2="30.594154" id="paint_linear_203_9756_0" gradientUnits="userSpaceOnUse">
			<stop stop-color="#EC1C24"/>
			<stop offset="0.127900" stop-color="#EC1C24"/>
			<stop offset="0.204000" stop-color="#CB2037"/>
			<stop offset="0.567300" stop-color="#2E3191"/>
			<stop offset="1.000000" stop-color="#2E3191"/>
		</linearGradient>
	</defs>
	<rect id="logo (1) 1" width="121.000000" height="44.000000" fill="#FFFFFF" fill-opacity="0"/>
	<g clip-path="url(#clip203_9740)">
		<path id="Vector" d="M89.31 10.86L89.22 10.86L89.22 33.2L89.31 33.2L89.31 10.86Z" fill="#58595B" fill-opacity="1.000000" fill-rule="nonzero"/>
		<mask id="mask203_9743" mask-type="alpha" maskUnits="userSpaceOnUse" x="94.849609" y="10.521729" width="15.394043" height="19.847717">
			<path id="Vector" d="M96.98 12.5C95.56 13.81 94.84 15.5 94.84 17.5C94.84 19.15 95.33 20.71 96.28 22.13C97.11 23.35 98.54 24.9 100.72 26.88L104.1 30.07C104.71 30.54 105.6 30.43 106.08 29.88C106.61 29.28 106.57 28.37 106 27.81C104.24 26.22 104.52 26.45 102.77 24.86C100.95 23.22 99.68 21.84 98.98 20.73C98.33 19.71 97.99 18.64 97.99 17.58C97.99 16.35 98.41 15.37 99.26 14.58C100.15 13.77 101.16 13.39 102.41 13.39C103.63 13.39 104.75 13.71 105.7 14.35C106.29 14.77 106.91 15.35 107.54 16.09C107.54 16.09 107.54 16.09 107.52 16.09C107.69 16.33 107.98 16.77 108.11 17.43C108.26 18.28 108.01 18.96 107.88 19.22C108.36 19.22 109.04 18.98 109.59 18.39C110.14 17.77 110.84 15.5 109.34 13.71C108.95 13.26 108.58 12.73 107.39 11.94C105.98 11.01 104.22 10.52 102.24 10.52C100.17 10.52 98.39 11.2 96.98 12.5Z" fill="#FFFFFF" fill-opacity="1.000000" fill-rule="nonzero"/>
		</mask>
		<g mask="url(#mask203_9743)">
			<path id="Vector" d="M110.86 10.52L94.84 10.52L94.84 30.52L110.86 30.52L110.86 10.52Z" fill="url(#paint_linear_203_9746_0)" fill-opacity="1.000000" fill-rule="nonzero"/>
		</g>
		<mask id="mask203_9748" mask-type="alpha" maskUnits="userSpaceOnUse" x="94.849609" y="10.521729" width="15.394043" height="9.084747">
			<path id="Vector" d="M96.98 12.5C95.56 13.81 94.84 15.5 94.84 17.5C94.84 18.22 94.93 18.92 95.12 19.6C95.18 18.86 95.39 17.58 96.26 16.33C98.29 13.41 102.01 13.39 102.41 13.39C103.63 13.39 104.75 13.71 105.7 14.35C106.29 14.77 106.91 15.35 107.54 16.09C107.54 16.09 107.54 16.09 107.52 16.09C107.69 16.33 107.98 16.77 108.11 17.43C108.26 18.28 108.01 18.96 107.88 19.22C108.36 19.22 109.04 18.98 109.59 18.39C110.14 17.77 110.84 15.5 109.34 13.71C108.95 13.26 108.58 12.73 107.39 11.94C105.98 11.01 104.22 10.52 102.24 10.52C100.17 10.52 98.39 11.2 96.98 12.5Z" fill="#FFFFFF" fill-opacity="1.000000" fill-rule="nonzero"/>
		</mask>
		<g mask="url(#mask203_9748)">
			<path id="Vector" d="M110.86 10.52L94.84 10.52L94.84 19.6L110.86 19.6L110.86 10.52Z" fill="url(#paint_linear_203_9751_0)" fill-opacity="1.000000" fill-rule="nonzero"/>
		</g>
		<mask id="mask203_9753" mask-type="alpha" maskUnits="userSpaceOnUse" x="105.577393" y="10.521729" width="15.422607" height="22.956512">
			<path id="Vector" d="M113.56 10.52C111.55 10.52 109.82 10.98 108.41 11.94C108 12.22 107.69 12.45 107.43 12.69C107.35 12.75 107.26 12.84 107.2 12.9C106.88 13.2 106.67 13.47 106.48 13.71C104.98 15.47 105.66 17.77 106.23 18.39C106.78 18.98 107.45 19.22 107.94 19.22C107.84 18.96 107.56 18.28 107.71 17.43C107.81 16.77 108.13 16.33 108.3 16.09C108.91 15.35 109.53 14.75 110.14 14.35C111.09 13.71 112.21 13.39 113.43 13.39C114.66 13.39 115.69 13.77 116.58 14.58C117.45 15.37 117.85 16.35 117.85 17.58C117.85 18.62 117.51 19.69 116.86 20.73C116.16 21.81 114.89 23.2 113.07 24.86L106.99 30.96C106.99 30.96 106.99 30.96 106.97 30.98C106.72 31.24 106.55 31.6 106.55 32.01C106.55 32.81 107.2 33.47 108 33.47C108.38 33.47 108.74 33.32 109 33.07L109.02 33.05L109.04 33.03L115.12 26.9C117.3 24.92 118.74 23.37 119.56 22.15C120.51 20.73 121 19.15 121 17.52C121 15.52 120.28 13.84 118.86 12.52C117.42 11.2 115.65 10.52 113.56 10.52Z" fill="#FFFFFF" fill-opacity="1.000000" fill-rule="nonzero"/>
		</mask>
		<g mask="url(#mask203_9753)">
			<path id="Vector" d="M97.65 13.22L106.84 38.64L128.28 30.77L119.09 5.35L97.65 13.22Z" fill="url(#paint_linear_203_9756_0)" fill-opacity="1.000000" fill-rule="nonzero"/>
		</g>
		<path id="Vector" d="M11.11 10.86C8.3 10.86 5.87 11.81 3.82 13.64C3.65 13.79 3.48 13.94 3.31 14.11C1.11 16.26 0 18.92 0 22.01C0 25.07 1.14 27.71 3.27 29.88C4.75 31.37 6.44 32.37 8.36 32.86C9.23 33.07 10.13 33.18 11.08 33.18C12.04 33.18 12.96 33.07 13.83 32.86C14.08 32.79 14.32 32.73 14.55 32.64C14.63 32.6 14.74 32.58 14.82 32.54L14.84 32.54C16.15 32.07 17.34 31.35 18.44 30.35L21.86 32.83L22.17 33.07L22.17 10.84L18.44 13.67C16.37 11.81 13.92 10.86 11.11 10.86ZM15.82 26.77C14.8 27.79 13.62 28.41 12.29 28.62C11.91 28.69 11.53 28.73 11.11 28.73C9.25 28.73 7.68 28.11 6.37 26.79C5.06 25.47 4.45 23.88 4.45 22.03C4.45 20.32 4.96 18.86 6.06 17.6C6.16 17.47 6.25 17.37 6.37 17.24C7.68 15.92 9.25 15.3 11.11 15.3C12.94 15.3 14.51 15.94 15.82 17.26C17.13 18.58 17.76 20.15 17.76 22.01C17.76 23.88 17.13 25.45 15.82 26.77Z" fill="#EC1C24" fill-opacity="1.000000" fill-rule="nonzero"/>
		<path id="Vector" d="M51.54 32.64C52.61 33 53.75 33.2 54.96 33.2C56.14 33.2 57.3 33 58.4 32.64C59.2 32.39 59.96 32.03 60.73 31.56C62.44 30.49 63.79 29.07 64.74 27.28L65.16 26.49L61.3 24.3L60.85 25.15C60.28 26.24 59.48 27.13 58.42 27.77C57.37 28.41 56.23 28.73 54.98 28.73C53.9 28.73 52.89 28.52 51.96 28.01L61.51 19.52L64.74 16.64L64.34 15.98C63.37 14.43 61.99 13.22 60.41 12.3C59.25 11.64 58 11.18 56.69 11.01C56.14 10.9 55.57 10.86 55 10.86C54.7 10.86 54.43 10.88 54.13 10.88C51.47 11.07 49.15 12.15 47.21 14.09C45.03 16.26 43.91 18.92 43.91 22.01C43.91 23.79 44.31 25.43 45.05 26.92C45.58 27.98 46.32 28.96 47.18 29.86C48.45 31.18 49.91 32.11 51.54 32.64ZM48.39 20.96C48.58 19.54 49.17 18.3 50.23 17.24C50.42 17.07 50.59 16.88 50.78 16.73L50.8 16.73C51.98 15.75 53.37 15.3 54.96 15.3C56.23 15.3 57.39 15.62 58.44 16.28L48.92 24.81C48.52 23.92 48.33 23.01 48.33 22.01C48.33 21.64 48.35 21.3 48.39 20.96Z" fill="#EC1C24" fill-opacity="1.000000" fill-rule="nonzero"/>
		<path id="Vector" d="M37.4 33.13L41.84 33.13L41.84 20.03C41.84 17.64 41.04 15.56 39.35 13.88C37.68 12.2 35.61 11.39 33.22 11.39C31.13 11.39 29.27 12.05 27.71 13.41L24.62 10.9L24.62 33.18L29.06 33.18L29.06 20.03C29.06 18.86 29.46 17.88 30.26 17.07C31.09 16.24 32.06 15.86 33.2 15.86C34.36 15.86 35.33 16.24 36.16 17.05C37 17.88 37.36 18.88 37.36 20.05L37.36 33.13L37.4 33.13Z" fill="#EC1C24" fill-opacity="1.000000" fill-rule="nonzero"/>
		<path id="Vector" d="M83.69 33.18L76.5 20.43L81.89 10.86L76.65 10.86L73.86 15.79L71.07 10.86L65.82 10.86L71.26 20.43L64.02 33.18L69.28 33.18L73.86 25.07L78.43 33.18L83.69 33.18Z" fill="#EC1C24" fill-opacity="1.000000" fill-rule="nonzero"/>
	</g>
</svg>
