<svg width="159.000000" height="58.000000" viewBox="0 0 159 58" fill="none" xmlns="http://www.w3.org/2000/svg" xmlns:xlink="http://www.w3.org/1999/xlink">
	<desc>
			Created with Pixso.
	</desc>
	<defs>
		<clipPath id="clip199_1592">
			<rect id="logo (1) 1" width="159.000000" height="58.000000" fill="white" fill-opacity="0"/>
		</clipPath>
		<linearGradient x1="124.614746" y1="27.069988" x2="144.856583" y2="27.069988" id="paint_linear_199_1598_0" gradientUnits="userSpaceOnUse">
			<stop stop-color="#871719"/>
			<stop offset="0.450000" stop-color="#DA1F26"/>
			<stop offset="1.000000" stop-color="#F0564B"/>
		</linearGradient>
		<linearGradient x1="124.614746" y1="19.890095" x2="144.856583" y2="19.890095" id="paint_linear_199_1603_0" gradientUnits="userSpaceOnUse">
			<stop stop-color="#F0564B"/>
			<stop offset="0.550000" stop-color="#DA1F26"/>
			<stop offset="1.000000" stop-color="#871719"/>
		</linearGradient>
		<linearGradient x1="143.416718" y1="15.086691" x2="152.714447" y2="40.328667" id="paint_linear_199_1608_0" gradientUnits="userSpaceOnUse">
			<stop stop-color="#EC1C24"/>
			<stop offset="0.127900" stop-color="#EC1C24"/>
			<stop offset="0.204000" stop-color="#CB2037"/>
			<stop offset="0.567300" stop-color="#2E3191"/>
			<stop offset="1.000000" stop-color="#2E3191"/>
		</linearGradient>
	</defs>
	<rect id="logo (1) 1" width="159.000000" height="58.000000" fill="#FFFFFF" fill-opacity="0"/>
	<g clip-path="url(#clip199_1592)">
		<path id="Vector" d="M117.35 14.31L117.24 14.31L117.24 43.76L117.35 43.76L117.35 14.31Z" fill="#58595B" fill-opacity="1.000000" fill-rule="nonzero"/>
		<mask id="mask199_1595" mask-type="alpha" maskUnits="userSpaceOnUse" x="124.637085" y="13.869568" width="20.228699" height="26.162903">
			<path id="Vector" d="M127.44 16.47C125.58 18.21 124.63 20.43 124.63 23.06C124.63 25.25 125.27 27.3 126.52 29.18C127.6 30.78 129.49 32.82 132.35 35.43L136.79 39.64C137.59 40.26 138.76 40.12 139.4 39.39C140.09 38.6 140.04 37.39 139.29 36.67C136.98 34.56 137.34 34.87 135.04 32.77C132.65 30.61 130.99 28.78 130.07 27.33C129.21 25.98 128.77 24.58 128.77 23.18C128.77 21.55 129.32 20.26 130.43 19.22C131.6 18.16 132.93 17.65 134.57 17.65C136.18 17.65 137.65 18.07 138.9 18.91C139.68 19.47 140.48 20.23 141.31 21.21C141.31 21.21 141.31 21.21 141.29 21.21C141.51 21.52 141.9 22.11 142.06 22.98C142.26 24.1 141.92 25 141.76 25.34C142.4 25.34 143.28 25.03 144.01 24.24C144.73 23.43 145.64 20.43 143.67 18.07C143.17 17.48 142.67 16.78 141.12 15.74C139.26 14.51 136.96 13.86 134.35 13.86C131.63 13.86 129.3 14.76 127.44 16.47Z" fill="#FFFFFF" fill-opacity="1.000000" fill-rule="nonzero"/>
		</mask>
		<g mask="url(#mask199_1595)">
			<path id="Vector" d="M145.67 13.86L124.63 13.86L124.63 40.23L145.67 40.23L145.67 13.86Z" fill="url(#paint_linear_199_1598_0)" fill-opacity="1.000000" fill-rule="nonzero"/>
		</g>
		<mask id="mask199_1600" mask-type="alpha" maskUnits="userSpaceOnUse" x="124.637085" y="13.869568" width="20.228699" height="11.975372">
			<path id="Vector" d="M127.44 16.47C125.58 18.21 124.63 20.43 124.63 23.06C124.63 24.02 124.74 24.94 124.99 25.84C125.08 24.86 125.35 23.18 126.49 21.52C129.16 17.68 134.04 17.65 134.57 17.65C136.18 17.65 137.65 18.07 138.9 18.91C139.68 19.47 140.48 20.23 141.31 21.21C141.31 21.21 141.31 21.21 141.29 21.21C141.51 21.52 141.9 22.11 142.06 22.98C142.26 24.1 141.92 25 141.76 25.34C142.4 25.34 143.28 25.03 144.01 24.24C144.73 23.43 145.64 20.43 143.67 18.07C143.17 17.48 142.67 16.78 141.12 15.74C139.26 14.51 136.96 13.86 134.35 13.86C131.63 13.86 129.3 14.76 127.44 16.47Z" fill="#FFFFFF" fill-opacity="1.000000" fill-rule="nonzero"/>
		</mask>
		<g mask="url(#mask199_1600)">
			<path id="Vector" d="M145.67 13.86L124.63 13.86L124.63 25.84L145.67 25.84L145.67 13.86Z" fill="url(#paint_linear_199_1603_0)" fill-opacity="1.000000" fill-rule="nonzero"/>
		</g>
		<mask id="mask199_1605" mask-type="alpha" maskUnits="userSpaceOnUse" x="138.733948" y="13.869568" width="20.266052" height="30.260864">
			<path id="Vector" d="M149.22 13.86C146.59 13.86 144.31 14.48 142.45 15.74C141.92 16.11 141.51 16.42 141.17 16.73C141.06 16.81 140.95 16.92 140.87 17.01C140.45 17.4 140.17 17.76 139.92 18.07C137.96 20.4 138.84 23.43 139.59 24.24C140.31 25.03 141.2 25.34 141.84 25.34C141.7 25 141.34 24.1 141.53 22.98C141.67 22.11 142.09 21.52 142.31 21.21C143.12 20.23 143.92 19.45 144.73 18.91C145.98 18.07 147.45 17.65 149.06 17.65C150.67 17.65 152.03 18.16 153.19 19.22C154.33 20.26 154.86 21.55 154.86 23.18C154.86 24.55 154.41 25.95 153.56 27.33C152.64 28.76 150.97 30.58 148.59 32.77L140.59 40.82C140.59 40.82 140.59 40.82 140.56 40.84C140.23 41.18 140.01 41.66 140.01 42.19C140.01 43.26 140.87 44.13 141.92 44.13C142.42 44.13 142.9 43.93 143.23 43.59L143.26 43.56L143.28 43.54L151.28 35.46C154.14 32.85 156.02 30.8 157.11 29.21C158.36 27.33 159 25.25 159 23.09C159 20.46 158.05 18.24 156.19 16.5C154.3 14.76 151.97 13.86 149.22 13.86Z" fill="#FFFFFF" fill-opacity="1.000000" fill-rule="nonzero"/>
		</mask>
		<g mask="url(#mask199_1605)">
			<path id="Vector" d="M128.32 17.43L140.4 50.94L168.57 40.56L156.5 7.05L128.32 17.43Z" fill="url(#paint_linear_199_1608_0)" fill-opacity="1.000000" fill-rule="nonzero"/>
		</g>
		<path id="Vector" d="M14.6 14.31C10.9 14.31 7.71 15.58 5.02 17.99C4.8 18.18 4.57 18.38 4.35 18.6C1.47 21.44 0 24.94 0 29.01C0 33.05 1.49 36.52 4.3 39.39C6.24 41.35 8.46 42.67 10.99 43.31C12.12 43.59 13.32 43.73 14.57 43.73C15.82 43.73 17.04 43.59 18.18 43.31C18.51 43.23 18.81 43.14 19.12 43.03C19.23 42.98 19.37 42.95 19.48 42.89L19.51 42.89C21.23 42.27 22.78 41.32 24.23 40L28.72 43.28L29.14 43.59L29.14 14.28L24.23 18.02C21.51 15.58 18.29 14.31 14.6 14.31ZM20.79 35.29C19.45 36.64 17.9 37.45 16.15 37.73C15.65 37.82 15.15 37.87 14.6 37.87C12.15 37.87 10.1 37.06 8.38 35.32C6.66 33.58 5.85 31.48 5.85 29.04C5.85 26.79 6.52 24.86 7.96 23.2C8.1 23.04 8.21 22.89 8.38 22.73C10.1 20.99 12.15 20.17 14.6 20.17C17.01 20.17 19.06 21.02 20.79 22.75C22.51 24.49 23.34 26.57 23.34 29.01C23.34 31.48 22.51 33.55 20.79 35.29Z" fill="#EC1C24" fill-opacity="1.000000" fill-rule="nonzero"/>
		<path id="Vector" d="M67.72 43.03C69.14 43.51 70.64 43.76 72.22 43.76C73.77 43.76 75.3 43.51 76.74 43.03C77.8 42.69 78.8 42.22 79.8 41.6C82.05 40.2 83.82 38.32 85.07 35.96L85.63 34.93L80.55 32.04L79.96 33.16C79.21 34.59 78.16 35.77 76.77 36.61C75.38 37.45 73.89 37.87 72.25 37.87C70.83 37.87 69.5 37.59 68.28 36.92L80.82 25.73L85.07 21.94L84.54 21.07C83.27 19.02 81.46 17.43 79.38 16.22C77.85 15.35 76.22 14.73 74.5 14.51C73.77 14.37 73.02 14.31 72.28 14.31C71.89 14.31 71.53 14.34 71.14 14.34C67.64 14.59 64.59 16.02 62.03 18.58C59.17 21.44 57.7 24.94 57.7 29.01C57.7 31.36 58.23 33.52 59.2 35.49C59.9 36.89 60.87 38.18 62 39.36C63.67 41.1 65.59 42.33 67.72 43.03ZM63.59 27.63C63.84 25.76 64.61 24.13 66 22.73C66.25 22.5 66.47 22.25 66.72 22.05L66.75 22.05C68.31 20.76 70.14 20.17 72.22 20.17C73.88 20.17 75.41 20.6 76.8 21.46L64.28 32.71C63.75 31.53 63.5 30.33 63.5 29.01C63.5 28.53 63.53 28.08 63.59 27.63Z" fill="#EC1C24" fill-opacity="1.000000" fill-rule="nonzero"/>
		<path id="Vector" d="M49.15 43.68L54.98 43.68L54.98 26.4C54.98 23.26 53.93 20.51 51.71 18.3C49.51 16.08 46.79 15.01 43.66 15.01C40.91 15.01 38.47 15.88 36.41 17.68L32.36 14.37L32.36 43.73L38.19 43.73L38.19 26.4C38.19 24.86 38.72 23.57 39.77 22.5C40.85 21.41 42.13 20.9 43.63 20.9C45.16 20.9 46.43 21.41 47.52 22.47C48.63 23.57 49.1 24.89 49.1 26.43L49.1 43.68L49.15 43.68Z" fill="#EC1C24" fill-opacity="1.000000" fill-rule="nonzero"/>
		<path id="Vector" d="M109.97 43.73L100.53 26.93L107.61 14.31L100.73 14.31L97.06 20.82L93.4 14.31L86.49 14.31L93.65 26.93L84.13 43.73L91.04 43.73L97.06 33.05L103.06 43.73L109.97 43.73Z" fill="#EC1C24" fill-opacity="1.000000" fill-rule="nonzero"/>
	</g>
</svg>
