<?xml version="1.0" encoding="utf-8"?><svg xmlns="http://www.w3.org/2000/svg" xmlns:xlink="http://www.w3.org/1999/xlink"><symbol viewBox="0 0 22 21.1777" id="bg-star" xmlns="http://www.w3.org/2000/svg"><desc>Created with Pixso.</desc><defs/><path id="aVector" d="M22 8.08L14 7.56L10.99 0L7.98 7.56L0 8.08L6.12 13.28L4.11 21.17L10.99 16.82L17.87 21.17L15.86 13.28L22 8.08Z" fill-opacity="1.000000" fill-rule="evenodd"/></symbol><symbol viewBox="0 0 12.5322 12.1326" id="button_2" xmlns="http://www.w3.org/2000/svg"><desc>Created with Pixso.</desc><defs/><path id="bLine 82" d="M0.76 0.73L11.76 11.38" stroke-opacity="1.000000" stroke-width="1.500000" stroke-linecap="round"/><path id="bLine 81" d="M3.51 11.38L11.76 11.38" stroke-opacity="1.000000" stroke-width="1.500000" stroke-linecap="round"/><path id="bLine 83" d="M11.76 11.38L11.76 3.79" stroke-opacity="1.000000" stroke-width="1.500000" stroke-linecap="round"/></symbol><symbol viewBox="0 0 22 22" id="calendar" xmlns="http://www.w3.org/2000/svg"><desc>Created with Pixso.</desc><defs/><path id="cVector" d="M7.33 1.83L7.33 4.58" stroke-opacity="1.000000" stroke-width="1.000000" stroke-linejoin="round" stroke-linecap="round"/><path id="cVector" d="M14.66 1.83L14.66 4.58" stroke-opacity="1.000000" stroke-width="1.000000" stroke-linejoin="round" stroke-linecap="round"/><path id="cVector" d="M3.2 8.33L18.79 8.33" stroke-opacity="1.000000" stroke-width="1.000000" stroke-linejoin="round" stroke-linecap="round"/><path id="cVector" d="M19.25 15.58C19.25 18.33 17.87 20.16 14.66 20.16L7.33 20.16C4.12 20.16 2.75 18.33 2.75 15.58L2.75 7.79C2.75 5.04 4.12 3.2 7.33 3.2L14.66 3.2C17.87 3.2 19.25 5.04 19.25 7.79L19.25 15.58Z" stroke-opacity="1.000000" stroke-width="1.000000" stroke-linejoin="round"/><g opacity="0.000000"><path id="cVector" d="" fill-opacity="1.000000" fill-rule="evenodd"/></g><path id="cVector" d="M14.38 12.55L14.39 12.55" stroke-opacity="1.000000" stroke-width="1.000000" stroke-linejoin="round" stroke-linecap="round"/><path id="cVector" d="M14.38 15.3L14.39 15.3" stroke-opacity="1.000000" stroke-width="1.000000" stroke-linejoin="round" stroke-linecap="round"/><path id="cVector" d="M10.99 12.55L11 12.55" stroke-opacity="1.000000" stroke-width="1.000000" stroke-linejoin="round" stroke-linecap="round"/><path id="cVector" d="M10.99 15.3L11 15.3" stroke-opacity="1.000000" stroke-width="1.000000" stroke-linejoin="round" stroke-linecap="round"/><path id="cVector" d="M7.6 12.55L7.61 12.55" stroke-opacity="1.000000" stroke-width="1.000000" stroke-linejoin="round" stroke-linecap="round"/><path id="cVector" d="M7.6 15.3L7.61 15.3" stroke-opacity="1.000000" stroke-width="1.000000" stroke-linejoin="round" stroke-linecap="round"/></symbol><symbol viewBox="0 0 15.7847 14.4668" id="check__1" xmlns="http://www.w3.org/2000/svg"><desc>Created with Pixso.</desc><defs/><path id="e3-Check" d="M5.14 14.46C5.08 14.46 5.02 14.45 4.97 14.42C4.91 14.39 4.87 14.34 4.84 14.29C3.54 12.09 0.1 7.4 0.06 7.35C0.01 7.28 -0.01 7.2 0 7.12C0 7.03 0.04 6.96 0.1 6.9L1.16 5.85C1.22 5.79 1.29 5.76 1.37 5.75C1.45 5.75 1.53 5.77 1.6 5.81L5.07 8.23C7.37 5.27 9.51 3.23 10.92 2.03C12.5 0.68 13.5 0.07 13.54 0.04C13.59 0.01 13.66 0 13.72 0L15.43 0C15.5 0 15.57 0.02 15.63 0.06C15.69 0.1 15.73 0.15 15.76 0.22C15.78 0.28 15.79 0.35 15.77 0.42C15.75 0.49 15.72 0.55 15.66 0.6C13.12 2.86 10.48 6.46 8.71 9.08C6.79 11.93 5.45 14.26 5.44 14.29C5.41 14.34 5.36 14.38 5.31 14.41C5.26 14.45 5.2 14.46 5.14 14.46L5.14 14.46Z" fill-opacity="1.000000" fill-rule="nonzero"/></symbol><symbol viewBox="0 0 15.7847 14.4668" id="check__2" xmlns="http://www.w3.org/2000/svg"><desc>Created with Pixso.</desc><defs/><path id="f3-Check" d="M5.14 14.46C5.08 14.46 5.02 14.45 4.97 14.42C4.91 14.39 4.87 14.34 4.84 14.29C3.54 12.09 0.1 7.4 0.06 7.35C0.01 7.28 -0.01 7.2 0 7.12C0 7.03 0.04 6.96 0.1 6.9L1.16 5.85C1.22 5.79 1.29 5.76 1.37 5.75C1.45 5.75 1.53 5.77 1.6 5.81L5.07 8.23C7.37 5.27 9.51 3.23 10.92 2.03C12.5 0.68 13.5 0.07 13.54 0.04C13.59 0.01 13.66 0 13.72 0L15.43 0C15.5 0 15.57 0.02 15.63 0.06C15.69 0.1 15.73 0.15 15.76 0.22C15.78 0.28 15.79 0.35 15.77 0.42C15.75 0.49 15.72 0.55 15.66 0.6C13.12 2.86 10.48 6.46 8.71 9.08C6.79 11.93 5.45 14.26 5.44 14.29C5.41 14.34 5.36 14.38 5.31 14.41C5.26 14.45 5.2 14.46 5.14 14.46L5.14 14.46Z" fill-opacity="1.000000" fill-rule="nonzero"/></symbol><symbol viewBox="0 0 34.2001 31.3438" id="check__black" xmlns="http://www.w3.org/2000/svg"><desc>Created with Pixso.</desc><defs/><path id="g3-Check" d="M11.14 31.34C11.01 31.34 10.88 31.31 10.76 31.24C10.65 31.17 10.56 31.08 10.49 30.97C7.69 26.19 0.22 16.03 0.14 15.93C0.03 15.78 -0.02 15.6 0 15.42C0.01 15.25 0.09 15.08 0.22 14.95L2.51 12.68C2.64 12.56 2.8 12.48 2.98 12.47C3.15 12.45 3.33 12.5 3.47 12.6L10.98 17.84C15.97 11.43 20.61 7 23.66 4.39C27.08 1.47 29.25 0.16 29.34 0.1C29.46 0.03 29.59 0 29.73 0L33.45 0C33.6 0 33.75 0.04 33.87 0.13C34 0.21 34.09 0.33 34.15 0.48C34.2 0.62 34.21 0.78 34.17 0.92C34.14 1.07 34.06 1.21 33.94 1.3C28.44 6.21 22.71 14 18.88 19.68C14.71 25.85 11.82 30.91 11.79 30.96C11.72 31.08 11.63 31.17 11.52 31.24C11.4 31.3 11.27 31.34 11.14 31.34L11.14 31.34Z" fill-opacity="1.000000" fill-rule="nonzero"/></symbol><symbol viewBox="0 0 15.7847 14.4668" id="check_white" xmlns="http://www.w3.org/2000/svg"><desc>Created with Pixso.</desc><defs/><path id="d3-Check" d="M5.14 14.46C5.08 14.46 5.02 14.45 4.97 14.42C4.91 14.39 4.87 14.34 4.84 14.29C3.54 12.09 0.1 7.4 0.06 7.35C0.01 7.28 -0.01 7.2 0 7.12C0 7.03 0.04 6.95 0.1 6.9L1.16 5.85C1.22 5.79 1.29 5.76 1.37 5.75C1.45 5.74 1.53 5.77 1.6 5.81L5.07 8.23C7.37 5.27 9.51 3.23 10.92 2.03C12.5 0.68 13.5 0.07 13.54 0.04C13.59 0.01 13.66 0 13.72 0L15.43 0C15.5 0 15.57 0.02 15.63 0.06C15.69 0.1 15.73 0.15 15.76 0.22C15.78 0.28 15.79 0.36 15.77 0.42C15.75 0.49 15.72 0.55 15.66 0.6C13.12 2.86 10.48 6.46 8.71 9.08C6.79 11.93 5.45 14.26 5.44 14.29C5.41 14.34 5.36 14.38 5.31 14.41C5.26 14.45 5.2 14.46 5.14 14.46L5.14 14.46Z" fill-opacity="1.000000" fill-rule="evenodd"/></symbol><symbol viewBox="0 0 21 19.8857" id="cutlery" xmlns="http://www.w3.org/2000/svg"><desc>Created with Pixso.</desc><defs/><path id="hVector" d="M18.66 1.2C18.51 1.06 18.27 1.06 18.12 1.2L14.21 5.11C14.16 5.17 14.12 5.23 14.11 5.31C14.1 5.38 14.1 5.45 14.13 5.52C14.16 5.59 14.21 5.65 14.27 5.69C14.33 5.73 14.4 5.76 14.48 5.76C14.53 5.76 14.58 5.75 14.62 5.73C14.67 5.71 14.71 5.68 14.75 5.65L18.66 1.74C18.8 1.59 18.8 1.35 18.66 1.2ZM19.72 2.25C19.65 2.18 19.55 2.14 19.45 2.14C19.35 2.14 19.26 2.18 19.19 2.25L15.28 6.16C15.21 6.23 15.17 6.33 15.17 6.43C15.17 6.53 15.21 6.62 15.28 6.69C15.31 6.73 15.35 6.76 15.4 6.77C15.44 6.79 15.49 6.8 15.54 6.8C15.59 6.8 15.64 6.79 15.69 6.77C15.73 6.76 15.77 6.73 15.81 6.69L19.72 2.78C19.75 2.75 19.78 2.71 19.8 2.66C19.82 2.62 19.83 2.57 19.83 2.52C19.83 2.47 19.82 2.42 19.8 2.37C19.78 2.33 19.75 2.29 19.72 2.25Z" fill-opacity="1.000000" fill-rule="nonzero"/><path id="hVector" d="M16.03 8.85L20.88 4C20.92 3.96 20.95 3.92 20.97 3.88C20.99 3.83 21 3.78 21 3.73C21 3.68 20.99 3.63 20.97 3.59C20.95 3.54 20.92 3.5 20.88 3.47C20.74 3.32 20.5 3.32 20.35 3.47L15.5 8.32C14.9 8.92 13.99 9.07 13.22 8.71C13.15 8.67 13.07 8.66 12.99 8.68C12.9 8.7 12.83 8.74 12.78 8.8L11.13 10.66C11.13 10.66 11.13 10.66 11.13 10.66C11.13 10.66 11.13 10.66 11.12 10.66L4 18.69L3.99 18.7C3.97 18.73 3.95 18.75 3.92 18.77C3.45 19.24 2.69 19.24 2.22 18.77C1.99 18.55 1.86 18.24 1.86 17.92C1.86 17.6 1.99 17.29 2.22 17.07C2.24 17.04 2.27 17.02 2.29 17C2.29 17 2.29 17 2.3 16.99L6.75 13.04C6.83 12.97 6.87 12.88 6.88 12.78C6.89 12.68 6.85 12.58 6.78 12.51C6.65 12.35 6.41 12.34 6.25 12.47L1.8 16.43C1.76 16.46 1.72 16.5 1.68 16.53C1.31 16.9 1.11 17.4 1.11 17.92C1.11 18.44 1.31 18.94 1.68 19.31C2.07 19.69 2.57 19.88 3.07 19.88C3.57 19.88 4.07 19.69 4.46 19.31C4.49 19.27 4.53 19.23 4.56 19.19L10 13.07L15.43 19.19C15.46 19.23 15.5 19.27 15.53 19.31C15.92 19.69 16.42 19.88 16.92 19.88C17.42 19.88 17.93 19.69 18.31 19.31C19.07 18.54 19.07 17.3 18.31 16.53C18.27 16.5 18.23 16.46 18.19 16.43L11.94 10.88L13.16 9.5C14.15 9.85 15.28 9.61 16.03 8.85ZM17.69 16.99L17.7 17C17.73 17.02 17.75 17.04 17.77 17.07C18.25 17.54 18.25 18.3 17.77 18.77C17.3 19.24 16.54 19.24 16.07 18.77C16.04 18.75 16.02 18.72 15.99 18.69L10.5 12.5L11.44 11.44L17.69 16.99Z" fill-opacity="1.000000" fill-rule="nonzero"/><path id="hVector" d="M17.52 0.11C17.45 0.04 17.36 0 17.26 0C17.16 0 17.06 0.04 16.99 0.11L12.14 4.96C11.38 5.71 11.14 6.83 11.49 7.83L10 9.15L8.56 7.88C9.3 6.42 9.03 4.64 7.85 3.47C6.68 2.3 5.33 1.47 4.04 1.15C2.69 0.81 1.54 1.04 0.79 1.79C0.04 2.54 -0.19 3.69 0.15 5.04C0.47 6.33 1.3 7.68 2.47 8.85C3.64 10.03 5.42 10.3 6.88 9.56L8.3 11.16C8.34 11.2 8.38 11.23 8.43 11.25C8.48 11.28 8.53 11.29 8.58 11.29C8.67 11.29 8.76 11.25 8.83 11.19L12.19 8.21C12.25 8.16 12.29 8.08 12.31 8C12.33 7.92 12.32 7.84 12.28 7.77C11.92 7 12.07 6.09 12.67 5.49L17.52 0.64C17.56 0.6 17.59 0.56 17.61 0.52C17.62 0.47 17.63 0.42 17.63 0.37C17.63 0.32 17.62 0.27 17.61 0.23C17.59 0.18 17.56 0.14 17.52 0.11ZM8.61 10.38L7.24 8.83C7.18 8.77 7.1 8.72 7.01 8.71C6.93 8.7 6.84 8.71 6.76 8.76C5.55 9.51 4.01 9.33 3 8.32C1.92 7.25 1.17 6.01 0.88 4.85C0.61 3.77 0.76 2.87 1.32 2.32C1.87 1.76 2.78 1.61 3.85 1.88C5.01 2.17 6.25 2.92 7.32 4C8.33 5 8.51 6.55 7.76 7.76C7.71 7.84 7.7 7.93 7.71 8.01C7.72 8.1 7.77 8.18 7.83 8.24L9.43 9.66L8.61 10.38Z" fill-opacity="1.000000" fill-rule="nonzero"/></symbol><symbol viewBox="0 0 16 16" id="facebook" xmlns="http://www.w3.org/2000/svg"><desc>Created with Pixso.</desc><defs/><path id="ifacebook" d="M16 8C16 3.6 12.4 0 8 0C3.59 0 0 3.6 0 8C0 12 2.9 15.29 6.69 15.89L6.69 10.29L4.69 10.29L4.69 8L6.69 8L6.69 6.2C6.69 4.2 7.9 3.1 9.69 3.1C10.6 3.1 11.5 3.29 11.5 3.29L11.5 5.29L10.5 5.29C9.5 5.29 9.19 5.89 9.19 6.5L9.19 8L11.4 8L11 10.29L9.09 10.29L9.09 16C13.1 15.39 16 12 16 8Z" fill-opacity="1.000000" fill-rule="nonzero"/></symbol><symbol viewBox="0 0 22 22" id="filter" xmlns="http://www.w3.org/2000/svg"><desc>Created with Pixso.</desc><defs/><path d="M20.16 5.95L14.66 5.95" stroke-opacity="1.000000" stroke-width="1.000000" stroke-linejoin="round" stroke-linecap="round"/><path d="M5.5 5.95L1.83 5.95" stroke-opacity="1.000000" stroke-width="1.000000" stroke-linejoin="round" stroke-linecap="round"/><path d="M9.16 9.16C7.39 9.16 5.95 7.73 5.95 5.95C5.95 4.18 7.39 2.75 9.16 2.75C10.93 2.75 12.37 4.18 12.37 5.95C12.37 7.73 10.93 9.16 9.16 9.16Z" stroke-opacity="1.000000" stroke-width="1.000000" stroke-linejoin="round"/><path d="M20.16 16.04L16.5 16.04" stroke-opacity="1.000000" stroke-width="1.000000" stroke-linejoin="round" stroke-linecap="round"/><path d="M7.33 16.04L1.83 16.04" stroke-opacity="1.000000" stroke-width="1.000000" stroke-linejoin="round" stroke-linecap="round"/><path d="M12.83 19.25C11.06 19.25 9.62 17.81 9.62 16.04C9.62 14.26 11.06 12.83 12.83 12.83C14.6 12.83 16.04 14.26 16.04 16.04C16.04 17.81 14.6 19.25 12.83 19.25Z" stroke-opacity="1.000000" stroke-width="1.000000" stroke-linejoin="round"/><g opacity="0.000000"/></symbol><symbol viewBox="0 0 14.1219 21.4844" id="fire" xmlns="http://www.w3.org/2000/svg"><desc>Created with Pixso.</desc><defs/><path id="kVector" d="M9.03 21.48C10.12 19.86 10.22 18.11 9.33 16.24C9.08 17.24 8.63 17.86 7.97 18.07C8.58 16.32 8.07 14.43 6.43 12.4C6.4 14.5 5.89 16.03 4.92 16.98C3.58 18.3 3.6 19.79 4.97 21.45C-0.73 18.42 -1.53 14.36 2.56 9.26C2.81 10.49 3.42 11.25 4.4 11.53C3.34 7.01 4.46 3.17 7.76 0C7.78 7.04 9.94 7.67 12.67 10.82C15.62 14.59 13.89 18.95 9.03 21.48Z" fill-opacity="1.000000" fill-rule="evenodd"/></symbol><symbol viewBox="0 0 16 68.5" id="hero__icon" xmlns="http://www.w3.org/2000/svg"><desc>Created with Pixso.</desc><defs/><path id="lArrow 1" d="M6.23 62.26Q6.96 63 8 63Q9.03 63 9.76 62.26Q10.5 61.53 10.5 60.5Q10.5 59.46 9.76 58.73Q9.21 58.18 8.5 58.04L8.5 0.5C8.5 0.22 8.28 0 8 0C7.71 0 7.5 0.22 7.5 0.5L7.5 58.04Q6.78 58.18 6.23 58.73Q5.5 59.46 5.5 60.5Q5.5 61.53 6.23 62.26Z" fill-opacity="1.000000" fill-rule="evenodd"/><circle id="lEllipse 2" cx="8.000000" cy="60.500000" r="7.500000" stroke-opacity="1.000000" stroke-width="1.000000"/></symbol><symbol viewBox="0 0 16.6 16.6001" id="instagram" xmlns="http://www.w3.org/2000/svg"><desc>Created with Pixso.</desc><defs/><path id="minstagram" d="M11.7 0L4.9 0C4 0 3.4 0.2 2.9 0.39C2.4 0.6 1.9 0.89 1.4 1.39C0.9 1.89 0.69 2.29 0.4 2.89C0.19 3.39 0.09 4 0 4.89L0 11.7C0 12.6 0.19 13.2 0.4 13.7C0.59 14.2 0.9 14.7 1.4 15.2C1.9 15.7 2.3 15.89 2.9 16.2C3.4 16.39 4 16.5 4.9 16.6L11.7 16.6C12.6 16.6 13.2 16.39 13.7 16.2C14.2 16 14.7 15.7 15.2 15.2C15.7 14.7 15.9 14.29 16.2 13.7C16.4 13.2 16.5 12.6 16.6 11.7L16.6 4.89C16.6 4 16.4 3.39 16.2 2.89C16 2.39 15.7 1.89 15.2 1.39C14.7 0.89 14.3 0.7 13.7 0.39C13.2 0.2 12.6 0.1 11.7 0ZM4.9 1.5L11.7 1.5C12.5 1.5 12.9 1.7 13.2 1.79C13.6 2 13.9 2.1 14.2 2.39C14.5 2.7 14.7 3 14.8 3.39C14.9 3.7 15 4.1 15.1 4.89L15.1 11.7C15.1 12.5 14.9 12.89 14.8 13.2C14.6 13.6 14.5 13.89 14.2 14.2C13.9 14.5 13.6 14.7 13.2 14.79C12.9 14.89 12.5 15 11.7 15.1L4.9 15.1C4.09 15.1 3.69 14.89 3.4 14.79C3 14.6 2.69 14.5 2.4 14.2C2.09 13.89 1.9 13.6 1.8 13.2C1.69 12.89 1.59 12.5 1.5 11.7L1.5 4.89C1.5 4.1 1.69 3.7 1.8 3.39C2 3 2.09 2.7 2.4 2.39C2.69 2.1 3 1.89 3.4 1.79C3.69 1.7 4.09 1.6 4.9 1.5ZM13.7 3.89C13.7 4.45 13.25 4.89 12.7 4.89C12.14 4.89 11.7 4.45 11.7 3.89C11.7 3.34 12.14 2.89 12.7 2.89C13.25 2.89 13.7 3.34 13.7 3.89ZM8.3 4C5.9 4 4 5.89 4 8.29C4 10.7 5.9 12.6 8.3 12.6C10.7 12.6 12.6 10.7 12.6 8.29C12.6 5.89 10.7 4 8.3 4ZM8.3 11.1C6.8 11.1 5.5 9.89 5.5 8.29C5.5 6.79 6.69 5.5 8.3 5.5C9.8 5.5 11.1 6.7 11.1 8.29C11.1 9.79 9.8 11.1 8.3 11.1Z" fill-opacity="1.000000" fill-rule="evenodd"/></symbol><symbol viewBox="0 0 19.7262 8.00146" id="letter" xmlns="http://www.w3.org/2000/svg"><desc>Created with Pixso.</desc><defs/><path id="nVector" d="M19.22 0.5L9.86 7.5L0.5 0.5" stroke-opacity="1.000000" stroke-width="1.000000" stroke-linejoin="round" stroke-linecap="round"/></symbol><symbol viewBox="0 0 41.5 16" id="line" xmlns="http://www.w3.org/2000/svg"><desc>Created with Pixso.</desc><defs/><path id="oArrow 1" d="M35.26 9.76Q36 9.03 36 8Q36 6.96 35.26 6.23Q34.53 5.5 33.5 5.5Q32.46 5.5 31.73 6.23Q31.18 6.78 31.04 7.5L0.5 7.5C0.21 7.5 0 7.71 0 8C0 8.28 0.21 8.5 0.5 8.5L31.04 8.5Q31.18 9.21 31.73 9.76Q32.46 10.5 33.5 10.5Q34.53 10.5 35.26 9.76Z" fill-opacity="1.000000" fill-rule="evenodd"/><circle id="oEllipse 2" r="7.500000" transform="matrix(-4.37114e-08 -1 1 -4.37114e-08 33.5 8)" stroke-opacity="1.000000" stroke-width="1.000000"/></symbol><symbol viewBox="0 0 22 22" id="linear__sort" xmlns="http://www.w3.org/2000/svg"><desc>Created with Pixso.</desc><defs/><path d="M2.75 6.41L19.25 6.41" stroke-opacity="1.000000" stroke-width="1.000000" stroke-linecap="round"/><path d="M5.5 11L16.5 11" stroke-opacity="1.000000" stroke-width="1.000000" stroke-linecap="round"/><path d="M9.16 15.58L12.83 15.58" stroke-opacity="1.000000" stroke-width="1.000000" stroke-linecap="round"/><g opacity="0.000000"/></symbol><symbol viewBox="0 0 26 26" id="location" xmlns="http://www.w3.org/2000/svg"><desc>Created with Pixso.</desc><defs/><path id="qVector" d="M13 14.54C11.13 14.54 9.62 13.03 9.62 11.16C9.62 9.3 11.13 7.78 13 7.78C14.86 7.78 16.37 9.3 16.37 11.16C16.37 13.03 14.86 14.54 13 14.54Z" stroke-opacity="1.000000" stroke-width="1.500000"/><path id="qVector" d="M22.07 9.2C23.32 14.71 19.9 19.37 16.9 22.25C14.72 24.35 11.27 24.35 9.08 22.25C6.09 19.37 2.67 14.7 3.92 9.19C6.05 -0.19 19.95 -0.18 22.07 9.2Z" stroke-opacity="1.000000" stroke-width="1.500000"/><g opacity="0.000000"/></symbol><symbol viewBox="0 0 12.1289 64.6016" id="mark" xmlns="http://www.w3.org/2000/svg"><desc>Created with Pixso.</desc><defs/><path id="r!" d="M1.31 45.13L10.5 45.13L11.55 0L0.3 0L1.31 45.13ZM0.65 56.09Q0 57.33 0 58.93Q0 60.4 0.59 61.58Q0.96 62.34 1.58 62.97Q1.78 63.18 2 63.36Q3.53 64.59 6.06 64.59Q8.59 64.59 10.12 63.36Q10.34 63.18 10.54 62.97Q11.16 62.34 11.53 61.58Q12.12 60.4 12.12 58.93Q12.12 57.33 11.47 56.09Q11.09 55.37 10.5 54.77Q10.19 54.46 9.83 54.2Q8.34 53.12 6.06 53.12Q3.78 53.12 2.28 54.2Q1.93 54.46 1.62 54.77Q1.03 55.37 0.65 56.09Z" fill-opacity="1.000000" fill-rule="evenodd"/></symbol><symbol viewBox="0 0 10.8918 18.75" id="ok" xmlns="http://www.w3.org/2000/svg"><desc>Created with Pixso.</desc><defs/><path id="sok" d="M5.46 9.69C8.13 9.69 10.31 7.51 10.31 4.84C10.31 2.17 8.13 0 5.46 0C2.77 0 0.59 2.17 0.59 4.84C0.59 7.51 2.77 9.69 5.46 9.69ZM5.46 2.84C6.57 2.84 7.47 3.74 7.47 4.84C7.47 5.94 6.57 6.84 5.46 6.84C4.36 6.84 3.46 5.94 3.46 4.84C3.43 3.74 4.33 2.84 5.46 2.84ZM7.41 13.66C8.39 13.43 9.35 13.05 10.22 12.5C10.89 12.09 11.09 11.19 10.66 10.53C10.25 9.86 9.35 9.66 8.68 10.09C6.71 11.34 4.13 11.34 2.16 10.09C1.49 9.69 0.62 9.86 0.18 10.53C-0.19 11.19 0.01 12.06 0.68 12.47C1.55 13.02 2.5 13.4 3.49 13.63L0.79 16.33C0.24 16.88 0.24 17.78 0.79 18.33C1.08 18.62 1.43 18.74 1.81 18.74C2.18 18.74 2.53 18.59 2.82 18.33L5.49 15.66L8.16 18.33C8.71 18.88 9.61 18.88 10.16 18.33C10.71 17.78 10.71 16.88 10.16 16.33L7.41 13.66Z" fill-opacity="1.000000" fill-rule="evenodd"/></symbol><symbol viewBox="0 0 23.1342 23.1667" id="phone" xmlns="http://www.w3.org/2000/svg"><desc>Created with Pixso.</desc><defs/><path id="tVector" d="M22.11 19.62C21.92 20.01 21.69 20.37 21.37 20.72C20.84 21.31 20.26 21.73 19.6 22C18.95 22.27 18.24 22.41 17.48 22.41C16.38 22.41 15.2 22.15 13.95 21.62C12.71 21.09 11.46 20.37 10.22 19.48C8.98 18.57 7.8 17.56 6.67 16.44C5.56 15.32 4.55 14.14 3.65 12.9C2.76 11.67 2.05 10.43 1.53 9.21C1.01 7.97 0.75 6.79 0.75 5.66C0.75 4.93 0.88 4.22 1.14 3.57C1.4 2.91 1.81 2.31 2.38 1.76C3.07 1.08 3.83 0.75 4.63 0.75C4.94 0.75 5.24 0.81 5.51 0.94C5.79 1.07 6.04 1.26 6.24 1.55L8.75 5.09C8.95 5.36 9.09 5.61 9.18 5.85C9.28 6.07 9.34 6.3 9.34 6.51C9.34 6.77 9.26 7.03 9.11 7.28C8.97 7.53 8.76 7.79 8.5 8.05L7.68 8.9C7.56 9.02 7.51 9.16 7.51 9.34C7.51 9.42 7.52 9.5 7.54 9.59C7.57 9.67 7.6 9.74 7.62 9.8C7.82 10.16 8.16 10.63 8.63 11.19C9.12 11.75 9.64 12.33 10.2 12.9C10.79 13.47 11.35 14.01 11.93 14.49C12.49 14.97 12.95 15.29 13.32 15.49C13.38 15.51 13.44 15.54 13.52 15.58C13.6 15.61 13.69 15.62 13.79 15.62C13.97 15.62 14.11 15.55 14.23 15.44L15.06 14.62C15.33 14.35 15.59 14.15 15.84 14.02C16.09 13.86 16.33 13.79 16.61 13.79C16.81 13.79 17.03 13.83 17.27 13.93C17.5 14.03 17.75 14.17 18.02 14.35L21.61 16.9C21.89 17.09 22.09 17.32 22.21 17.59C22.31 17.86 22.38 18.13 22.38 18.44C22.38 18.83 22.29 19.23 22.11 19.62Z" stroke-opacity="1.000000" stroke-width="1.500000"/></symbol><symbol viewBox="0 0 22 21.918" id="search" xmlns="http://www.w3.org/2000/svg"><desc>Created with Pixso.</desc><defs/><path id="uVector" d="M10.02 20.05C12.47 20.05 14.79 19.17 16.61 17.58L20.83 21.72C20.95 21.84 21.13 21.91 21.31 21.91C21.4 21.91 21.49 21.89 21.57 21.86C21.66 21.82 21.73 21.77 21.8 21.71C22.06 21.44 22.06 21 21.79 20.74L17.58 16.6C19.18 14.78 20.05 12.47 20.05 10.02C20.05 7.34 19 4.83 17.11 2.93C15.22 1.04 12.7 0 10.02 0C7.34 0 4.83 1.04 2.93 2.93C1.04 4.83 0 7.34 0 10.02C0 12.7 1.04 15.22 2.93 17.11C4.83 19 7.34 20.05 10.02 20.05ZM3.9 3.9C5.59 2.22 7.81 1.37 10.02 1.37C12.24 1.37 14.45 2.22 16.14 3.9C19.51 7.28 19.51 12.76 16.14 16.14C12.77 19.51 7.28 19.51 3.9 16.14C0.53 12.76 0.53 7.28 3.9 3.9Z" fill-opacity="1.000000" fill-rule="evenodd"/></symbol><symbol viewBox="0 0 21 20.2148" id="star" xmlns="http://www.w3.org/2000/svg"><desc>Created with Pixso.</desc><defs/><path id="vVector" d="M21 7.72L13.37 7.21L10.5 0L7.62 7.21L0 7.72L5.85 12.68L3.93 20.21L10.5 16.06L17.06 20.21L15.14 12.68L21 7.72ZM10.5 14.6L5.88 17.52L7.23 12.23L3.11 8.74L8.48 8.39L10.5 3.32L12.51 8.39L17.89 8.74L13.76 12.23L15.11 17.52L10.5 14.6Z" fill-opacity="1.000000" fill-rule="evenodd"/></symbol><symbol viewBox="0 0 16 13.2598" id="telegram" xmlns="http://www.w3.org/2000/svg"><desc>Created with Pixso.</desc><defs/><path id="wtelegram" d="M1.09 5.7C5.39 3.83 8.25 2.6 9.69 2C13.78 0.3 14.63 0 15.18 0C15.3 -0.01 15.58 0.02 15.75 0.17C15.9 0.29 15.94 0.45 15.96 0.57C15.98 0.68 16.01 0.94 15.99 1.15C15.77 3.47 14.81 9.13 14.32 11.74C14.11 12.84 13.71 13.21 13.31 13.25C12.46 13.33 11.81 12.68 10.98 12.14C9.68 11.29 8.95 10.76 7.69 9.93C6.24 8.97 7.18 8.45 8.01 7.58C8.22 7.36 11.99 3.93 12.07 3.62C12.08 3.58 12.08 3.44 12 3.36C11.91 3.28 11.79 3.31 11.69 3.33C11.56 3.36 9.49 4.73 5.48 7.44C4.89 7.84 4.36 8.04 3.88 8.03C3.36 8.02 2.34 7.73 1.59 7.49C0.67 7.19 -0.06 7.03 0 6.52C0.03 6.25 0.4 5.98 1.09 5.7Z" fill-opacity="1.000000" fill-rule="nonzero"/></symbol><symbol viewBox="0 0 22 22" id="tours__global-search" xmlns="http://www.w3.org/2000/svg"><desc>Created with Pixso.</desc><defs/><path d="M20.16 11C20.16 5.93 16.05 1.83 11 1.83C5.93 1.83 1.83 5.93 1.83 11C1.83 16.05 5.93 20.16 11 20.16" stroke-opacity="1.000000" stroke-width="1.000000" stroke-linejoin="round" stroke-linecap="round"/><path d="M7.33 2.75L8.25 2.75C6.46 8.1 6.46 13.89 8.25 19.25L7.33 19.25" stroke-opacity="1.000000" stroke-width="1.000000" stroke-linejoin="round" stroke-linecap="round"/><path d="M13.75 2.75C14.63 5.42 15.08 8.21 15.08 11" stroke-opacity="1.000000" stroke-width="1.000000" stroke-linejoin="round" stroke-linecap="round"/><path d="M2.75 14.66L2.75 13.75C5.42 14.63 8.21 15.08 11 15.08" stroke-opacity="1.000000" stroke-width="1.000000" stroke-linejoin="round" stroke-linecap="round"/><path d="M2.75 8.25C8.1 6.46 13.89 6.46 19.25 8.25" stroke-opacity="1.000000" stroke-width="1.000000" stroke-linejoin="round" stroke-linecap="round"/><path d="M16.68 19.61C15.06 19.61 13.75 18.3 13.75 16.68C13.75 15.06 15.06 13.75 16.68 13.75C18.3 13.75 19.61 15.06 19.61 16.68C19.61 18.3 18.3 19.61 16.68 19.61Z" stroke-opacity="1.000000" stroke-width="1.000000" stroke-linejoin="round"/><path d="M20.16 20.16L19.25 19.25" stroke-opacity="1.000000" stroke-width="1.000000" stroke-linejoin="round" stroke-linecap="round"/><g opacity="0.000000"/></symbol><symbol viewBox="0 0 21.3546 13.3228" id="vk" xmlns="http://www.w3.org/2000/svg"><desc>Created with Pixso.</desc><defs/><path id="yVector" d="M11.62 13.32C4.33 13.32 0.17 8.33 0 0.01L3.66 0.01C3.78 6.11 6.47 8.69 8.6 9.22L8.6 0.01L12.05 0.01L12.05 5.26C14.15 5.04 16.37 2.64 17.12 0L20.55 0C20.27 1.36 19.71 2.66 18.91 3.8C18.1 4.95 17.07 5.91 15.88 6.64C17.21 7.3 18.39 8.24 19.33 9.39C20.27 10.54 20.96 11.88 21.35 13.32L17.56 13.32C16.75 10.79 14.73 8.83 12.05 8.56L12.05 13.32L11.63 13.32L11.62 13.32Z" fill-opacity="1.000000" fill-rule="nonzero"/></symbol><symbol viewBox="0 0 16 16" id="whatsapp" xmlns="http://www.w3.org/2000/svg"><desc>Created with Pixso.</desc><defs/><path id="zwhatsapp" d="M13.6 2.29C12.1 0.79 10.1 0 8 0C3.59 0 0 3.6 0 8C0 9.39 0.4 10.79 1.09 12L0 16L4.19 14.89C5.4 15.5 6.69 15.89 8 15.89C12.4 15.89 16 12.29 16 7.89C16 5.79 15.1 3.79 13.6 2.29ZM8 14.6C6.8 14.6 5.59 14.29 4.59 13.7L4.4 13.6L1.9 14.29L2.59 11.89L2.4 11.6C1.69 10.5 1.4 9.29 1.4 8.1C1.4 4.5 4.4 1.5 8 1.5C9.8 1.5 11.4 2.2 12.7 3.39C14 4.7 14.6 6.29 14.6 8.1C14.6 11.6 11.7 14.6 8 14.6ZM11.6 9.6C11.4 9.5 10.4 9 10.2 9C10 8.89 9.9 8.89 9.8 9.1C9.69 9.29 9.3 9.7 9.19 9.89C9.09 10 9 10 8.8 10C8.59 9.89 8 9.7 7.19 9C6.59 8.5 6.19 7.79 6.09 7.6C6 7.39 6.09 7.29 6.19 7.2C6.3 7.1 6.4 7 6.5 6.89C6.59 6.79 6.59 6.7 6.69 6.6C6.8 6.5 6.69 6.39 6.69 6.29C6.69 6.2 6.3 5.2 6.09 4.79C6 4.5 5.8 4.5 5.69 4.5C5.59 4.5 5.5 4.5 5.3 4.5C5.19 4.5 5 4.5 4.8 4.7C4.59 4.89 4.09 5.39 4.09 6.39C4.09 7.39 4.8 8.29 4.9 8.5C5 8.6 6.3 10.7 8.3 11.5C10 12.2 10.3 12 10.7 12C11.1 12 11.9 11.5 12 11.1C12.2 10.6 12.2 10.2 12.1 10.2C12 9.7 11.8 9.7 11.6 9.6Z" fill-opacity="1.000000" fill-rule="evenodd"/></symbol></svg>