<?xml version="1.0" encoding="utf-8"?><svg viewBox="0 0 41.5 68.5" xmlns="http://www.w3.org/2000/svg" xmlns:xlink="http://www.w3.org/1999/xlink"><style>:root>svg{display:none}:root>svg:target{display:block}</style><svg fill="none" viewBox="0 0 22 21.178" id="bg-star" xmlns="http://www.w3.org/2000/svg"><path d="m22 8.08-8-.52L10.99 0 7.98 7.56 0 8.08l6.12 5.2-2.01 7.89 6.88-4.35 6.88 4.35-2.01-7.89L22 8.08Z" fill="#EC1C24" fill-rule="evenodd"/></svg><svg fill="none" viewBox="0 0 12.532 12.133" id="button_2" xmlns="http://www.w3.org/2000/svg"><path d="m.76.73 11 10.65M3.51 11.38h8.25M11.76 11.38V3.79" stroke="#FFF" stroke-width="1.5" stroke-linecap="round"/></svg><svg fill="none" viewBox="0 0 22 22" id="calendar" xmlns="http://www.w3.org/2000/svg"><path d="M7.33 1.83v2.75M14.66 1.83v2.75M3.2 8.33h15.59" stroke="#1C1C1C" stroke-linejoin="round" stroke-linecap="round"/><path d="M19.25 15.58c0 2.75-1.38 4.58-4.59 4.58H7.33c-3.21 0-4.58-1.83-4.58-4.58V7.79c0-2.75 1.37-4.59 4.58-4.59h7.33c3.21 0 4.59 1.84 4.59 4.59v7.79Z" stroke="#1C1C1C" stroke-linejoin="round"/><path d="M14.38 12.55h.01M14.38 15.3h.01M10.99 12.55H11M10.99 15.3H11M7.6 12.55h.01M7.6 15.3h.01" stroke="#1C1C1C" stroke-linejoin="round" stroke-linecap="round"/></svg><svg fill="none" viewBox="0 0 15.785 14.467" id="check__1" xmlns="http://www.w3.org/2000/svg"><path d="M5.14 14.46a.329.329 0 0 1-.3-.17C3.54 12.09.1 7.4.06 7.35A.322.322 0 0 1 0 7.12c0-.09.04-.16.1-.22l1.06-1.05c.06-.06.13-.09.21-.1.08 0 .16.02.23.06l3.47 2.42c2.3-2.96 4.44-5 5.85-6.2C12.5.68 13.5.07 13.54.04c.05-.03.12-.04.18-.04h1.71c.07 0 .14.02.2.06.06.04.1.09.13.16.02.06.03.13.01.2-.02.07-.05.13-.11.18-2.54 2.26-5.18 5.86-6.95 8.48-1.92 2.85-3.26 5.18-3.27 5.21-.03.05-.08.09-.13.12-.05.04-.11.05-.17.05Z" fill="#463998"/></svg><svg fill="none" viewBox="0 0 15.785 14.467" id="check__2" xmlns="http://www.w3.org/2000/svg"><path d="M5.14 14.46a.329.329 0 0 1-.3-.17C3.54 12.09.1 7.4.06 7.35A.322.322 0 0 1 0 7.12c0-.09.04-.16.1-.22l1.06-1.05c.06-.06.13-.09.21-.1.08 0 .16.02.23.06l3.47 2.42c2.3-2.96 4.44-5 5.85-6.2C12.5.68 13.5.07 13.54.04c.05-.03.12-.04.18-.04h1.71c.07 0 .14.02.2.06.06.04.1.09.13.16.02.06.03.13.01.2-.02.07-.05.13-.11.18-2.54 2.26-5.18 5.86-6.95 8.48-1.92 2.85-3.26 5.18-3.27 5.21-.03.05-.08.09-.13.12-.05.04-.11.05-.17.05Z" fill="#463998"/></svg><svg fill="none" viewBox="0 0 34.2 31.344" id="check__black" xmlns="http://www.w3.org/2000/svg"><path d="M11.14 31.34c-.13 0-.26-.03-.38-.1a.87.87 0 0 1-.27-.27C7.69 26.19.22 16.03.14 15.93a.724.724 0 0 1-.14-.51c.01-.17.09-.34.22-.47l2.29-2.27c.13-.12.29-.2.47-.21.17-.02.35.03.49.13l7.51 5.24C15.97 11.43 20.61 7 23.66 4.39 27.08 1.47 29.25.16 29.34.1c.12-.07.25-.1.39-.1h3.72c.15 0 .3.04.42.13.13.08.22.2.28.35.05.14.06.3.02.44-.03.15-.11.29-.23.38-5.5 4.91-11.23 12.7-15.06 18.38-4.17 6.17-7.06 11.23-7.09 11.28-.07.12-.16.21-.27.28-.12.06-.25.1-.38.1Z" fill="#1C1C1C"/></svg><svg fill="none" viewBox="0 0 15.785 14.467" id="check_white" xmlns="http://www.w3.org/2000/svg"><path d="M5.14 14.46a.329.329 0 0 1-.3-.17C3.54 12.09.1 7.4.06 7.35A.322.322 0 0 1 0 7.12c0-.09.04-.17.1-.22l1.06-1.05c.06-.06.13-.09.21-.1.08-.01.16.02.23.06l3.47 2.42c2.3-2.96 4.44-5 5.85-6.2C12.5.68 13.5.07 13.54.04c.05-.03.12-.04.18-.04h1.71c.07 0 .14.02.2.06.06.04.1.09.13.16.02.06.03.14.01.2-.02.07-.05.13-.11.18-2.54 2.26-5.18 5.86-6.95 8.48-1.92 2.85-3.26 5.18-3.27 5.21-.03.05-.08.09-.13.12-.05.04-.11.05-.17.05Z" fill="#FFF" fill-rule="evenodd"/></svg><svg fill="none" viewBox="0 0 21 19.886" id="cutlery" xmlns="http://www.w3.org/2000/svg"><path d="M18.66 1.2a.4.4 0 0 0-.54 0l-3.91 3.91c-.05.06-.09.12-.1.2a.38.38 0 0 0 .02.21c.03.07.08.13.14.17.06.04.13.07.21.07.05 0 .1-.01.14-.03.05-.02.09-.05.13-.08l3.91-3.91a.4.4 0 0 0 0-.54Zm1.06 1.05a.386.386 0 0 0-.27-.11c-.1 0-.19.04-.26.11l-3.91 3.91c-.07.07-.11.17-.11.27s.04.19.11.26a.2.2 0 0 0 .12.08c.04.02.09.03.14.03.05 0 .1-.01.15-.03a.28.28 0 0 0 .12-.08l3.91-3.91a.36.36 0 0 0 .08-.12.32.32 0 0 0 .03-.14c0-.05-.01-.1-.03-.15-.02-.04-.05-.08-.08-.12Z" fill="#000"/><path d="M16.03 8.85 20.88 4a.47.47 0 0 0 .09-.12c.02-.05.03-.1.03-.15 0-.05-.01-.1-.03-.14a.273.273 0 0 0-.09-.12.368.368 0 0 0-.53 0L15.5 8.32c-.6.6-1.51.75-2.28.39a.306.306 0 0 0-.23-.03c-.09.02-.16.06-.21.12l-1.65 1.86h-.01L4 18.69l-.01.01c-.02.03-.04.05-.07.07-.47.47-1.23.47-1.7 0a1.18 1.18 0 0 1 0-1.7c.02-.03.05-.05.07-.07l.01-.01 4.45-3.95c.08-.07.12-.16.13-.26a.34.34 0 0 0-.1-.27c-.13-.16-.37-.17-.53-.04L1.8 16.43c-.04.03-.08.07-.12.1-.37.37-.57.87-.57 1.39 0 .52.2 1.02.57 1.39.39.38.89.57 1.39.57.5 0 1-.19 1.39-.57.03-.04.07-.08.1-.12L10 13.07l5.43 6.12c.03.04.07.08.1.12.39.38.89.57 1.39.57.5 0 1.01-.19 1.39-.57.76-.77.76-2.01 0-2.78-.04-.03-.08-.07-.12-.1l-6.25-5.55 1.22-1.38c.99.35 2.12.11 2.87-.65Zm1.66 8.14.01.01c.03.02.05.04.07.07.48.47.48 1.23 0 1.7-.47.47-1.23.47-1.7 0-.03-.02-.05-.05-.08-.08L10.5 12.5l.94-1.06 6.25 5.55Z" fill="#000"/><path d="M17.52.11a.363.363 0 0 0-.26-.11c-.1 0-.2.04-.27.11l-4.85 4.85c-.76.75-1 1.87-.65 2.87L10 9.15 8.56 7.88a3.79 3.79 0 0 0-.71-4.41c-1.17-1.17-2.52-2-3.81-2.32-1.35-.34-2.5-.11-3.25.64s-.98 1.9-.64 3.25C.47 6.33 1.3 7.68 2.47 8.85a3.79 3.79 0 0 0 4.41.71l1.42 1.6c.04.04.08.07.13.09.05.03.1.04.15.04.09 0 .18-.04.25-.1l3.36-2.98c.06-.05.1-.13.12-.21.02-.08.01-.16-.03-.23-.36-.77-.21-1.68.39-2.28L17.52.64a.47.47 0 0 0 .09-.12c.01-.05.02-.1.02-.15 0-.05-.01-.1-.02-.14a.273.273 0 0 0-.09-.12ZM8.61 10.38 7.24 8.83a.396.396 0 0 0-.23-.12c-.08-.01-.17 0-.25.05-1.21.75-2.75.57-3.76-.44C1.92 7.25 1.17 6.01.88 4.85c-.27-1.08-.12-1.98.44-2.53.55-.56 1.46-.71 2.53-.44 1.16.29 2.4 1.04 3.47 2.12 1.01 1 1.19 2.55.44 3.76-.05.08-.06.17-.05.25.01.09.06.17.12.23l1.6 1.42-.82.72Z" fill="#000"/></svg><svg fill="none" viewBox="0 0 16 16" id="facebook" xmlns="http://www.w3.org/2000/svg"><path d="M16 8c0-4.4-3.6-8-8-8-4.41 0-8 3.6-8 8 0 4 2.9 7.29 6.69 7.89v-5.6h-2V8h2V6.2c0-2 1.21-3.1 3-3.1.91 0 1.81.19 1.81.19v2h-1c-1 0-1.31.6-1.31 1.21V8h2.21l-.4 2.29H9.09V16C13.1 15.39 16 12 16 8Z" fill="#1C1C1C"/></svg><svg fill="none" viewBox="0 0 22 22" id="filter" xmlns="http://www.w3.org/2000/svg"><path d="M20.16 5.95h-5.5M5.5 5.95H1.83" stroke="#1C1C1C" stroke-linejoin="round" stroke-linecap="round"/><path d="M9.16 9.16a3.205 3.205 0 1 1 0-6.41 3.205 3.205 0 1 1 0 6.41Z" stroke="#1C1C1C" stroke-linejoin="round"/><path d="M20.16 16.04H16.5M7.33 16.04h-5.5" stroke="#1C1C1C" stroke-linejoin="round" stroke-linecap="round"/><path d="M12.83 19.25c-1.77 0-3.21-1.44-3.21-3.21 0-1.78 1.44-3.21 3.21-3.21s3.21 1.43 3.21 3.21c0 1.77-1.44 3.21-3.21 3.21Z" stroke="#1C1C1C" stroke-linejoin="round"/></svg><svg fill="none" viewBox="0 0 14.122 21.484" id="fire" xmlns="http://www.w3.org/2000/svg"><path d="M9.03 21.48c1.09-1.62 1.19-3.37.3-5.24-.25 1-.7 1.62-1.36 1.83.61-1.75.1-3.64-1.54-5.67-.03 2.1-.54 3.63-1.51 4.58-1.34 1.32-1.32 2.81.05 4.47-5.7-3.03-6.5-7.09-2.41-12.19.25 1.23.86 1.99 1.84 2.27C3.34 7.01 4.46 3.17 7.76 0c.02 7.04 2.18 7.67 4.91 10.82 2.95 3.77 1.22 8.13-3.64 10.66Z" fill="#FFF" fill-rule="evenodd"/></svg><svg fill="none" viewBox="0 0 16 68.5" id="hero__icon" xmlns="http://www.w3.org/2000/svg"><path d="M6.23 62.26Q6.96 63 8 63q1.03 0 1.76-.74.74-.73.74-1.76 0-1.04-.74-1.77-.55-.55-1.26-.69V.5C8.5.22 8.28 0 8 0c-.29 0-.5.22-.5.5v57.54q-.72.14-1.27.69-.73.73-.73 1.77 0 1.03.73 1.76Z" fill="#FFF" fill-rule="evenodd"/><circle cx="8" cy="60.5" r="7.5" stroke="#FFF"/></svg><svg fill="none" viewBox="0 0 16.6 16.6" id="instagram" xmlns="http://www.w3.org/2000/svg"><path d="M11.7 0H4.9C4 0 3.4.2 2.9.39c-.5.21-1 .5-1.5 1s-.71.9-1 1.5c-.21.5-.31 1.11-.4 2v6.81c0 .9.19 1.5.4 2 .19.5.5 1 1 1.5s.9.69 1.5 1c.5.19 1.1.3 2 .4h6.8c.9 0 1.5-.21 2-.4.5-.2 1-.5 1.5-1s.7-.91 1-1.5c.2-.5.3-1.1.4-2V4.89c0-.89-.2-1.5-.4-2s-.5-1-1-1.5-.9-.69-1.5-1C13.2.2 12.6.1 11.7 0ZM4.9 1.5h6.8c.8 0 1.2.2 1.5.29.4.21.7.31 1 .6.3.31.5.61.6 1 .1.31.2.71.3 1.5v6.81c0 .8-.2 1.19-.3 1.5-.2.4-.3.69-.6 1-.3.3-.6.5-1 .59-.3.1-.7.21-1.5.31H4.9c-.81 0-1.21-.21-1.5-.31-.4-.19-.71-.29-1-.59-.31-.31-.5-.6-.6-1-.11-.31-.21-.7-.3-1.5V4.89c0-.79.19-1.19.3-1.5.2-.39.29-.69.6-1 .29-.29.6-.5 1-.6.29-.09.69-.19 1.5-.29Zm8.8 2.39c0 .56-.45 1-1 1-.56 0-1-.44-1-1 0-.55.44-1 1-1 .55 0 1 .45 1 1ZM8.3 4C5.9 4 4 5.89 4 8.29c0 2.41 1.9 4.31 4.3 4.31s4.3-1.9 4.3-4.31C12.6 5.89 10.7 4 8.3 4Zm0 7.1c-1.5 0-2.8-1.21-2.8-2.81 0-1.5 1.19-2.79 2.8-2.79 1.5 0 2.8 1.2 2.8 2.79 0 1.5-1.3 2.81-2.8 2.81Z" fill="#1C1C1C" fill-rule="evenodd"/></svg><svg fill="none" viewBox="0 0 19.726 8.001" id="letter" xmlns="http://www.w3.org/2000/svg"><path d="m19.22.5-9.36 7L.5.5" stroke="#FFF" stroke-linejoin="round" stroke-linecap="round"/></svg><svg fill="none" viewBox="0 0 41.5 16" id="line" xmlns="http://www.w3.org/2000/svg"><path d="M35.26 9.76Q36 9.03 36 8q0-1.04-.74-1.77-.73-.73-1.76-.73-1.04 0-1.77.73-.55.55-.69 1.27H.5c-.29 0-.5.21-.5.5 0 .28.21.5.5.5h30.54q.14.71.69 1.26.73.74 1.77.74 1.03 0 1.76-.74Z" fill="#FFF" fill-rule="evenodd"/><circle r="7.5" transform="matrix(0 -1 1 0 33.5 8)" stroke="#FFF"/></svg><svg fill="none" viewBox="0 0 22 22" id="linear__sort" xmlns="http://www.w3.org/2000/svg"><path d="M2.75 6.41h16.5M5.5 11h11M9.16 15.58h3.67" stroke="#1C1C1C" stroke-linecap="round"/></svg><svg fill="none" viewBox="0 0 26 26" id="location" xmlns="http://www.w3.org/2000/svg"><path d="M13 14.54c-1.87 0-3.38-1.51-3.38-3.38 0-1.86 1.51-3.38 3.38-3.38a3.38 3.38 0 0 1 3.37 3.38c0 1.87-1.51 3.38-3.37 3.38Z" stroke="#1C1C1C" stroke-width="1.5"/><path d="M22.07 9.2c1.25 5.51-2.17 10.17-5.17 13.05a5.64 5.64 0 0 1-7.82 0C6.09 19.37 2.67 14.7 3.92 9.19 6.05-.19 19.95-.18 22.07 9.2Z" stroke="#1C1C1C" stroke-width="1.5"/></svg><svg fill="none" viewBox="0 0 12.129 64.602" id="mark" xmlns="http://www.w3.org/2000/svg"><path d="M1.31 45.13h9.19L11.55 0H.3l1.01 45.13ZM.65 56.09Q0 57.33 0 58.93q0 1.47.59 2.65.37.76.99 1.39.2.21.42.39 1.53 1.23 4.06 1.23 2.53 0 4.06-1.23.22-.18.42-.39.62-.63.99-1.39.59-1.18.59-2.65 0-1.6-.65-2.84-.38-.72-.97-1.32-.31-.31-.67-.57-1.49-1.08-3.77-1.08-2.28 0-3.78 1.08-.35.26-.66.57-.59.6-.97 1.32Z" fill="#EC1C24" fill-rule="evenodd"/></svg><svg fill="none" viewBox="0 0 10.892 18.75" id="ok" xmlns="http://www.w3.org/2000/svg"><path d="M5.46 9.69c2.67 0 4.85-2.18 4.85-4.85C10.31 2.17 8.13 0 5.46 0 2.77 0 .59 2.17.59 4.84s2.18 4.85 4.87 4.85Zm0-6.85c1.11 0 2.01.9 2.01 2s-.9 2-2.01 2c-1.1 0-2-.9-2-2-.03-1.1.87-2 2-2Zm1.95 10.82c.98-.23 1.94-.61 2.81-1.16.67-.41.87-1.31.44-1.97-.41-.67-1.31-.87-1.98-.44a6.137 6.137 0 0 1-6.52 0c-.67-.4-1.54-.23-1.98.44-.37.66-.17 1.53.5 1.94.87.55 1.82.93 2.81 1.16l-2.7 2.7c-.55.55-.55 1.45 0 2 .29.29.64.41 1.02.41.37 0 .72-.15 1.01-.41l2.67-2.67 2.67 2.67c.55.55 1.45.55 2 0s.55-1.45 0-2l-2.75-2.67Z" fill="#1C1C1C" fill-rule="evenodd"/></svg><svg fill="none" viewBox="0 0 23.134 23.167" id="phone" xmlns="http://www.w3.org/2000/svg"><path d="M22.11 19.62c-.19.39-.42.75-.74 1.1-.53.59-1.11 1.01-1.77 1.28-.65.27-1.36.41-2.12.41-1.1 0-2.28-.26-3.53-.79-1.24-.53-2.49-1.25-3.73-2.14-1.24-.91-2.42-1.92-3.55-3.04-1.11-1.12-2.12-2.3-3.02-3.54-.89-1.23-1.6-2.47-2.12-3.69C1.01 7.97.75 6.79.75 5.66c0-.73.13-1.44.39-2.09.26-.66.67-1.26 1.24-1.81C3.07 1.08 3.83.75 4.63.75c.31 0 .61.06.88.19.28.13.53.32.73.61l2.51 3.54c.2.27.34.52.43.76.1.22.16.45.16.66 0 .26-.08.52-.23.77-.14.25-.35.51-.61.77l-.82.85a.58.58 0 0 0-.17.44c0 .08.01.16.03.25.03.08.06.15.08.21.2.36.54.83 1.01 1.39.49.56 1.01 1.14 1.57 1.71.59.57 1.15 1.11 1.73 1.59.56.48 1.02.8 1.39 1 .06.02.12.05.2.09.08.03.17.04.27.04.18 0 .32-.07.44-.18l.83-.82c.27-.27.53-.47.78-.6.25-.16.49-.23.77-.23.2 0 .42.04.66.14.23.1.48.24.75.42l3.59 2.55c.28.19.48.42.6.69.1.27.17.54.17.85 0 .39-.09.79-.27 1.18Z" stroke="#1C1C1C" stroke-width="1.5"/></svg><svg fill="none" viewBox="0 0 22 21.918" id="search" xmlns="http://www.w3.org/2000/svg"><path d="M10.02 20.05c2.45 0 4.77-.88 6.59-2.47l4.22 4.14c.12.12.3.19.48.19.09 0 .18-.02.26-.05.09-.04.16-.09.23-.15.26-.27.26-.71-.01-.97l-4.21-4.14a9.9 9.9 0 0 0 2.47-6.58c0-2.68-1.05-5.19-2.94-7.09A9.96 9.96 0 0 0 10.02 0C7.34 0 4.83 1.04 2.93 2.93A9.978 9.978 0 0 0 0 10.02c0 2.68 1.04 5.2 2.93 7.09a9.988 9.988 0 0 0 7.09 2.94ZM3.9 3.9a8.673 8.673 0 0 1 6.12-2.53c2.22 0 4.43.85 6.12 2.53 3.37 3.38 3.37 8.86 0 12.24-3.37 3.37-8.86 3.37-12.24 0C.53 12.76.53 7.28 3.9 3.9Z" fill="#585858" fill-rule="evenodd"/></svg><svg fill="none" viewBox="0 0 21 20.215" id="star" xmlns="http://www.w3.org/2000/svg"><path d="m21 7.72-7.63-.51L10.5 0 7.62 7.21 0 7.72l5.85 4.96-1.92 7.53 6.57-4.15 6.56 4.15-1.92-7.53L21 7.72ZM10.5 14.6l-4.62 2.92 1.35-5.29-4.12-3.49 5.37-.35 2.02-5.07 2.01 5.07 5.38.35-4.13 3.49 1.35 5.29-4.61-2.92Z" fill="#FFF" fill-rule="evenodd"/></svg><svg fill="none" viewBox="0 0 16 13.26" id="telegram" xmlns="http://www.w3.org/2000/svg"><path d="M1.09 5.7c4.3-1.87 7.16-3.1 8.6-3.7 4.09-1.7 4.94-2 5.49-2 .12-.01.4.02.57.17.15.12.19.28.21.4.02.11.05.37.03.58-.22 2.32-1.18 7.98-1.67 10.59-.21 1.1-.61 1.47-1.01 1.51-.85.08-1.5-.57-2.33-1.11-1.3-.85-2.03-1.38-3.29-2.21-1.45-.96-.51-1.48.32-2.35.21-.22 3.98-3.65 4.06-3.96.01-.04.01-.18-.07-.26-.09-.08-.21-.05-.31-.03-.13.03-2.2 1.4-6.21 4.11-.59.4-1.12.6-1.6.59-.52-.01-1.54-.3-2.29-.54-.92-.3-1.65-.46-1.59-.97.03-.27.4-.54 1.09-.82Z" fill="#1C1C1C"/></svg><svg fill="none" viewBox="0 0 22 22" id="tours__global-search" xmlns="http://www.w3.org/2000/svg"><path d="M20.16 11c0-5.07-4.11-9.17-9.16-9.17-5.07 0-9.17 4.1-9.17 9.17 0 5.05 4.1 9.16 9.17 9.16" stroke="#1C1C1C" stroke-linejoin="round" stroke-linecap="round"/><path d="M7.33 2.75h.92a26.02 26.02 0 0 0 0 16.5h-.92M13.75 2.75c.88 2.67 1.33 5.46 1.33 8.25" stroke="#1C1C1C" stroke-linejoin="round" stroke-linecap="round"/><path d="M2.75 14.66v-.91c2.67.88 5.46 1.33 8.25 1.33M2.75 8.25a26.02 26.02 0 0 1 16.5 0" stroke="#1C1C1C" stroke-linejoin="round" stroke-linecap="round"/><path d="M16.68 19.61c-1.62 0-2.93-1.31-2.93-2.93s1.31-2.93 2.93-2.93 2.93 1.31 2.93 2.93-1.31 2.93-2.93 2.93Z" stroke="#1C1C1C" stroke-linejoin="round"/><path d="m20.16 20.16-.91-.91" stroke="#1C1C1C" stroke-linejoin="round" stroke-linecap="round"/></svg><svg fill="none" viewBox="0 0 21.355 13.323" id="vk" xmlns="http://www.w3.org/2000/svg"><path d="M11.62 13.32C4.33 13.32.17 8.33 0 .01h3.66c.12 6.1 2.81 8.68 4.94 9.21V.01h3.45v5.25c2.1-.22 4.32-2.62 5.07-5.26h3.43c-.28 1.36-.84 2.66-1.64 3.8-.81 1.15-1.84 2.11-3.03 2.84 1.33.66 2.51 1.6 3.45 2.75.94 1.15 1.63 2.49 2.02 3.93h-3.79c-.81-2.53-2.83-4.49-5.51-4.76v4.76h-.43Z" fill="#1C1C1C"/></svg><svg fill="none" viewBox="0 0 16 16" id="whatsapp" xmlns="http://www.w3.org/2000/svg"><path d="M13.6 2.29C12.1.79 10.1 0 8 0 3.59 0 0 3.6 0 8c0 1.39.4 2.79 1.09 4L0 16l4.19-1.11c1.21.61 2.5 1 3.81 1 4.4 0 8-3.6 8-8 0-2.1-.9-4.1-2.4-5.6ZM8 14.6c-1.2 0-2.41-.31-3.41-.9l-.19-.1-2.5.69.69-2.4-.19-.29c-.71-1.1-1-2.31-1-3.5 0-3.6 3-6.6 6.6-6.6 1.8 0 3.4.7 4.7 1.89 1.3 1.31 1.9 2.9 1.9 4.71 0 3.5-2.9 6.5-6.6 6.5Zm3.6-5c-.2-.1-1.2-.6-1.4-.6-.2-.11-.3-.11-.4.1-.11.19-.5.6-.61.79-.1.11-.19.11-.39.11-.21-.11-.8-.3-1.61-1-.6-.5-1-1.21-1.1-1.4-.09-.21 0-.31.1-.4.11-.1.21-.2.31-.31.09-.1.09-.19.19-.29.11-.1 0-.21 0-.31 0-.09-.39-1.09-.6-1.5-.09-.29-.29-.29-.4-.29H5.3c-.11 0-.3 0-.5.2-.21.19-.71.69-.71 1.69s.71 1.9.81 2.11c.1.1 1.4 2.2 3.4 3 1.7.7 2 .5 2.4.5.4 0 1.2-.5 1.3-.9.2-.5.2-.9.1-.9-.1-.5-.3-.5-.5-.6Z" fill="#1C1C1C" fill-rule="evenodd"/></svg></svg>